  0
SECTION
  2
HEADER
  9
$ACADVER
  1
AC1009
  9
$EXTMIN
 10
0.0
 20
0.0
 30
0.0
  9
$EXTMAX
 10
1000.0
 20
1000.0
 30
0.0
  9
$FILLMODE
 70
 0
  9
$SPLFRAME
 70
 1
  0
ENDSEC
  0
SECTION
  2
TABLES
  0
TABLE
  2
LAYER
 70
1
  0
LAYER
  2
0
 70
     0
 62
     7
  6
CONTINUOUS
  0
ENDTAB
  0
ENDSEC
  0
SECTION
  2
ENTITIES
  0
LINE
  8
0
 62
     0
 10
16.101
 20
100.03
 30
0.0
 11
4.74595
 21
100.03
 31
0.0
  0
LINE
  8
0
 62
     0
 10
4.74595
 20
100.03
 30
0.0
 11
4.74595
 21
4.92788
 31
0.0
  0
LINE
  8
0
 62
     0
 10
4.74595
 20
4.92788
 30
0.0
 11
371.309
 21
4.92788
 31
0.0
  0
LINE
  8
0
 62
     0
 10
371.309
 20
4.92788
 30
0.0
 11
371.309
 21
100.03
 31
0.0
  0
LINE
  8
0
 62
     0
 10
371.309
 20
100.03
 30
0.0
 11
25.9512
 21
100.03
 31
0.0
  0
LINE
  8
0
 62
     0
 10
25.9512
 20
100.03
 30
0.0
 11
25.9512
 21
104.68
 31
0.0
  0
LINE
  8
0
 62
     0
 10
25.9512
 20
104.68
 30
0.0
 11
373.959
 21
104.68
 31
0.0
  0
LINE
  8
0
 62
     0
 10
373.959
 20
104.68
 30
0.0
 11
374.114
 21
104.673
 31
0.0
  0
LINE
  8
0
 62
     0
 10
374.114
 20
104.673
 30
0.0
 11
374.273
 21
104.655
 31
0.0
  0
LINE
  8
0
 62
     0
 10
374.273
 20
104.655
 30
0.0
 11
374.424
 21
104.625
 31
0.0
  0
LINE
  8
0
 62
     0
 10
374.424
 20
104.625
 30
0.0
 11
374.576
 21
104.582
 31
0.0
  0
LINE
  8
0
 62
     0
 10
374.576
 20
104.582
 30
0.0
 11
374.724
 21
104.527
 31
0.0
  0
LINE
  8
0
 62
     0
 10
374.724
 20
104.527
 30
0.0
 11
374.865
 21
104.462
 31
0.0
  0
LINE
  8
0
 62
     0
 10
374.865
 20
104.462
 30
0.0
 11
375.003
 21
104.385
 31
0.0
  0
LINE
  8
0
 62
     0
 10
375.003
 20
104.385
 30
0.0
 11
375.137
 21
104.298
 31
0.0
  0
LINE
  8
0
 62
     0
 10
375.137
 20
104.298
 30
0.0
 11
375.257
 21
104.2
 31
0.0
  0
LINE
  8
0
 62
     0
 10
375.257
 20
104.2
 30
0.0
 11
375.373
 21
104.094
 31
0.0
  0
LINE
  8
0
 62
     0
 10
375.373
 20
104.094
 30
0.0
 11
375.479
 21
103.978
 31
0.0
  0
LINE
  8
0
 62
     0
 10
375.479
 20
103.978
 30
0.0
 11
375.578
 21
103.856
 31
0.0
  0
LINE
  8
0
 62
     0
 10
375.578
 20
103.856
 30
0.0
 11
375.662
 21
103.725
 31
0.0
  0
LINE
  8
0
 62
     0
 10
375.662
 20
103.725
 30
0.0
 11
375.74
 21
103.587
 31
0.0
  0
LINE
  8
0
 62
     0
 10
375.74
 20
103.587
 30
0.0
 11
375.807
 21
103.445
 31
0.0
  0
LINE
  8
0
 62
     0
 10
375.807
 20
103.445
 30
0.0
 11
375.86
 21
103.299
 31
0.0
  0
LINE
  8
0
 62
     0
 10
375.86
 20
103.299
 30
0.0
 11
375.902
 21
103.146
 31
0.0
  0
LINE
  8
0
 62
     0
 10
375.902
 20
103.146
 30
0.0
 11
375.934
 21
102.993
 31
0.0
  0
LINE
  8
0
 62
     0
 10
375.934
 20
102.993
 30
0.0
 11
375.952
 21
102.836
 31
0.0
  0
LINE
  8
0
 62
     0
 10
375.952
 20
102.836
 30
0.0
 11
375.959
 21
102.679
 31
0.0
  0
LINE
  8
0
 62
     0
 10
375.959
 20
102.679
 30
0.0
 11
375.959
 21
2.2779
 31
0.0
  0
LINE
  8
0
 62
     0
 10
375.959
 20
2.2779
 30
0.0
 11
375.952
 21
2.12218
 31
0.0
  0
LINE
  8
0
 62
     0
 10
375.952
 20
2.12218
 30
0.0
 11
375.934
 21
1.96646
 31
0.0
  0
LINE
  8
0
 62
     0
 10
375.934
 20
1.96646
 30
0.0
 11
375.902
 21
1.81212
 31
0.0
  0
LINE
  8
0
 62
     0
 10
375.902
 20
1.81212
 30
0.0
 11
375.86
 21
1.66054
 31
0.0
  0
LINE
  8
0
 62
     0
 10
375.86
 20
1.66054
 30
0.0
 11
375.807
 21
1.51309
 31
0.0
  0
LINE
  8
0
 62
     0
 10
375.807
 20
1.51309
 30
0.0
 11
375.74
 21
1.37115
 31
0.0
  0
LINE
  8
0
 62
     0
 10
375.74
 20
1.37115
 30
0.0
 11
375.662
 21
1.23472
 31
0.0
  0
LINE
  8
0
 62
     0
 10
375.662
 20
1.23472
 30
0.0
 11
375.578
 21
1.10381
 31
0.0
  0
LINE
  8
0
 62
     0
 10
375.578
 20
1.10381
 30
0.0
 11
375.479
 21
0.981163
 31
0.0
  0
LINE
  8
0
 62
     0
 10
375.479
 20
0.981163
 30
0.0
 11
375.373
 21
0.86403
 31
0.0
  0
LINE
  8
0
 62
     0
 10
375.373
 20
0.86403
 30
0.0
 11
375.257
 21
0.757922
 31
0.0
  0
LINE
  8
0
 62
     0
 10
375.257
 20
0.757922
 30
0.0
 11
375.137
 21
0.660079
 31
0.0
  0
LINE
  8
0
 62
     0
 10
375.137
 20
0.660079
 30
0.0
 11
375.003
 21
0.573264
 31
0.0
  0
LINE
  8
0
 62
     0
 10
375.003
 20
0.573264
 30
0.0
 11
374.865
 21
0.496094
 31
0.0
  0
LINE
  8
0
 62
     0
 10
374.865
 20
0.496094
 30
0.0
 11
374.724
 21
0.431327
 31
0.0
  0
LINE
  8
0
 62
     0
 10
374.724
 20
0.431327
 30
0.0
 11
374.576
 21
0.376206
 31
0.0
  0
LINE
  8
0
 62
     0
 10
374.576
 20
0.376206
 30
0.0
 11
374.424
 21
0.334863
 31
0.0
  0
LINE
  8
0
 62
     0
 10
374.424
 20
0.334863
 30
0.0
 11
374.273
 21
0.303168
 31
0.0
  0
LINE
  8
0
 62
     0
 10
374.273
 20
0.303168
 30
0.0
 11
374.114
 21
0.285254
 31
0.0
  0
LINE
  8
0
 62
     0
 10
374.114
 20
0.285254
 30
0.0
 11
373.959
 21
0.279742
 31
0.0
  0
LINE
  8
0
 62
     0
 10
373.959
 20
0.279742
 30
0.0
 11
2.096
 21
0.278364
 31
0.0
  0
LINE
  8
0
 62
     0
 10
2.096
 20
0.278364
 30
0.0
 11
1.9389
 21
0.285254
 31
0.0
  0
LINE
  8
0
 62
     0
 10
1.9389
 20
0.285254
 30
0.0
 11
1.7818
 21
0.303168
 31
0.0
  0
LINE
  8
0
 62
     0
 10
1.7818
 20
0.303168
 30
0.0
 11
1.62884
 21
0.334863
 31
0.0
  0
LINE
  8
0
 62
     0
 10
1.62884
 20
0.334863
 30
0.0
 11
1.47588
 21
0.376206
 31
0.0
  0
LINE
  8
0
 62
     0
 10
1.47588
 20
0.376206
 30
0.0
 11
1.32981
 21
0.431327
 31
0.0
  0
LINE
  8
0
 62
     0
 10
1.32981
 20
0.431327
 30
0.0
 11
1.18787
 21
0.496094
 31
0.0
  0
LINE
  8
0
 62
     0
 10
1.18787
 20
0.496094
 30
0.0
 11
1.05006
 21
0.573264
 31
0.0
  0
LINE
  8
0
 62
     0
 10
1.05006
 20
0.573264
 30
0.0
 11
0.919152
 21
0.660079
 31
0.0
  0
LINE
  8
0
 62
     0
 10
0.919152
 20
0.660079
 30
0.0
 11
0.796505
 21
0.757922
 31
0.0
  0
LINE
  8
0
 62
     0
 10
0.796505
 20
0.757922
 30
0.0
 11
0.680752
 21
0.86403
 31
0.0
  0
LINE
  8
0
 62
     0
 10
0.680752
 20
0.86403
 30
0.0
 11
0.574643
 21
0.981163
 31
0.0
  0
LINE
  8
0
 62
     0
 10
0.574643
 20
0.981163
 30
0.0
 11
0.4768
 21
1.10381
 31
0.0
  0
LINE
  8
0
 62
     0
 10
0.4768
 20
1.10381
 30
0.0
 11
0.389985
 21
1.23472
 31
0.0
  0
LINE
  8
0
 62
     0
 10
0.389985
 20
1.23472
 30
0.0
 11
0.312815
 21
1.37115
 31
0.0
  0
LINE
  8
0
 62
     0
 10
0.312815
 20
1.37115
 30
0.0
 11
0.248047
 21
1.51309
 31
0.0
  0
LINE
  8
0
 62
     0
 10
0.248047
 20
1.51309
 30
0.0
 11
0.192925
 21
1.66054
 31
0.0
  0
LINE
  8
0
 62
     0
 10
0.192925
 20
1.66054
 30
0.0
 11
0.150206
 21
1.81212
 31
0.0
  0
LINE
  8
0
 62
     0
 10
0.150206
 20
1.81212
 30
0.0
 11
0.119889
 21
1.96646
 31
0.0
  0
LINE
  8
0
 62
     0
 10
0.119889
 20
1.96646
 30
0.0
 11
0.101975
 21
2.12218
 31
0.0
  0
LINE
  8
0
 62
     0
 10
0.101975
 20
2.12218
 30
0.0
 11
0.0950846
 21
2.2779
 31
0.0
  0
LINE
  8
0
 62
     0
 10
0.0950846
 20
2.2779
 30
0.0
 11
0.0950846
 21
102.679
 31
0.0
  0
LINE
  8
0
 62
     0
 10
0.0950846
 20
102.679
 30
0.0
 11
0.101975
 21
102.836
 31
0.0
  0
LINE
  8
0
 62
     0
 10
0.101975
 20
102.836
 30
0.0
 11
0.119889
 21
102.993
 31
0.0
  0
LINE
  8
0
 62
     0
 10
0.119889
 20
102.993
 30
0.0
 11
0.150206
 21
103.146
 31
0.0
  0
LINE
  8
0
 62
     0
 10
0.150206
 20
103.146
 30
0.0
 11
0.192925
 21
103.299
 31
0.0
  0
LINE
  8
0
 62
     0
 10
0.192925
 20
103.299
 30
0.0
 11
0.248047
 21
103.445
 31
0.0
  0
LINE
  8
0
 62
     0
 10
0.248047
 20
103.445
 30
0.0
 11
0.312815
 21
103.587
 31
0.0
  0
LINE
  8
0
 62
     0
 10
0.312815
 20
103.587
 30
0.0
 11
0.389985
 21
103.725
 31
0.0
  0
LINE
  8
0
 62
     0
 10
0.389985
 20
103.725
 30
0.0
 11
0.4768
 21
103.856
 31
0.0
  0
LINE
  8
0
 62
     0
 10
0.4768
 20
103.856
 30
0.0
 11
0.574643
 21
103.978
 31
0.0
  0
LINE
  8
0
 62
     0
 10
0.574643
 20
103.978
 30
0.0
 11
0.680752
 21
104.094
 31
0.0
  0
LINE
  8
0
 62
     0
 10
0.680752
 20
104.094
 30
0.0
 11
0.796505
 21
104.2
 31
0.0
  0
LINE
  8
0
 62
     0
 10
0.796505
 20
104.2
 30
0.0
 11
0.919152
 21
104.298
 31
0.0
  0
LINE
  8
0
 62
     0
 10
0.919152
 20
104.298
 30
0.0
 11
1.05006
 21
104.385
 31
0.0
  0
LINE
  8
0
 62
     0
 10
1.05006
 20
104.385
 30
0.0
 11
1.18787
 21
104.462
 31
0.0
  0
LINE
  8
0
 62
     0
 10
1.18787
 20
104.462
 30
0.0
 11
1.32981
 21
104.527
 31
0.0
  0
LINE
  8
0
 62
     0
 10
1.32981
 20
104.527
 30
0.0
 11
1.47588
 21
104.582
 31
0.0
  0
LINE
  8
0
 62
     0
 10
1.47588
 20
104.582
 30
0.0
 11
1.62884
 21
104.625
 31
0.0
  0
LINE
  8
0
 62
     0
 10
1.62884
 20
104.625
 30
0.0
 11
1.7818
 21
104.655
 31
0.0
  0
LINE
  8
0
 62
     0
 10
1.7818
 20
104.655
 30
0.0
 11
1.9389
 21
104.673
 31
0.0
  0
LINE
  8
0
 62
     0
 10
1.9389
 20
104.673
 30
0.0
 11
2.096
 21
104.68
 31
0.0
  0
LINE
  8
0
 62
     0
 10
2.096
 20
104.68
 30
0.0
 11
16.101
 21
104.68
 31
0.0
  0
LINE
  8
0
 62
     0
 10
16.101
 20
104.68
 30
0.0
 11
16.101
 21
100.03
 31
0.0
  0
LINE
  8
0
 62
     0
 10
2.10289
 20
3.57875
 30
0.0
 11
1.81763
 21
3.43407
 31
0.0
  0
LINE
  8
0
 62
     0
 10
1.81763
 20
3.43407
 30
0.0
 11
1.59026
 21
3.20669
 31
0.0
  0
LINE
  8
0
 62
     0
 10
1.59026
 20
3.20669
 30
0.0
 11
1.44556
 21
2.92006
 31
0.0
  0
LINE
  8
0
 62
     0
 10
1.44556
 20
2.92006
 30
0.0
 11
1.39595
 21
2.60312
 31
0.0
  0
LINE
  8
0
 62
     0
 10
1.39595
 20
2.60312
 30
0.0
 11
1.44556
 21
2.28755
 31
0.0
  0
LINE
  8
0
 62
     0
 10
1.44556
 20
2.28755
 30
0.0
 11
1.59026
 21
2.00091
 31
0.0
  0
LINE
  8
0
 62
     0
 10
1.59026
 20
2.00091
 30
0.0
 11
1.81763
 21
1.77491
 31
0.0
  0
LINE
  8
0
 62
     0
 10
1.81763
 20
1.77491
 30
0.0
 11
2.10289
 21
1.62884
 31
0.0
  0
LINE
  8
0
 62
     0
 10
2.10289
 20
1.62884
 30
0.0
 11
2.41984
 21
1.57786
 31
0.0
  0
LINE
  8
0
 62
     0
 10
2.41984
 20
1.57786
 30
0.0
 11
2.73678
 21
1.62884
 31
0.0
  0
LINE
  8
0
 62
     0
 10
2.73678
 20
1.62884
 30
0.0
 11
3.02204
 21
1.77491
 31
0.0
  0
LINE
  8
0
 62
     0
 10
3.02204
 20
1.77491
 30
0.0
 11
3.24942
 21
2.00091
 31
0.0
  0
LINE
  8
0
 62
     0
 10
3.24942
 20
2.00091
 30
0.0
 11
3.39411
 21
2.28755
 31
0.0
  0
LINE
  8
0
 62
     0
 10
3.39411
 20
2.28755
 30
0.0
 11
3.4451
 21
2.60312
 31
0.0
  0
LINE
  8
0
 62
     0
 10
3.4451
 20
2.60312
 30
0.0
 11
3.39411
 21
2.92006
 31
0.0
  0
LINE
  8
0
 62
     0
 10
3.39411
 20
2.92006
 30
0.0
 11
3.24942
 21
3.20669
 31
0.0
  0
LINE
  8
0
 62
     0
 10
3.24942
 20
3.20669
 30
0.0
 11
3.02204
 21
3.43407
 31
0.0
  0
LINE
  8
0
 62
     0
 10
3.02204
 20
3.43407
 30
0.0
 11
2.73678
 21
3.57875
 31
0.0
  0
LINE
  8
0
 62
     0
 10
2.73678
 20
3.57875
 30
0.0
 11
2.41984
 21
3.62839
 31
0.0
  0
LINE
  8
0
 62
     0
 10
2.41984
 20
3.62839
 30
0.0
 11
2.10289
 21
3.57875
 31
0.0
  0
LINE
  8
0
 62
     0
 10
125.841
 20
3.57875
 30
0.0
 11
125.556
 21
3.43407
 31
0.0
  0
LINE
  8
0
 62
     0
 10
125.556
 20
3.43407
 30
0.0
 11
125.329
 21
3.20669
 31
0.0
  0
LINE
  8
0
 62
     0
 10
125.329
 20
3.20669
 30
0.0
 11
125.184
 21
2.92006
 31
0.0
  0
LINE
  8
0
 62
     0
 10
125.184
 20
2.92006
 30
0.0
 11
125.133
 21
2.60312
 31
0.0
  0
LINE
  8
0
 62
     0
 10
125.133
 20
2.60312
 30
0.0
 11
125.184
 21
2.28755
 31
0.0
  0
LINE
  8
0
 62
     0
 10
125.184
 20
2.28755
 30
0.0
 11
125.329
 21
2.00091
 31
0.0
  0
LINE
  8
0
 62
     0
 10
125.329
 20
2.00091
 30
0.0
 11
125.556
 21
1.77491
 31
0.0
  0
LINE
  8
0
 62
     0
 10
125.556
 20
1.77491
 30
0.0
 11
125.841
 21
1.62884
 31
0.0
  0
LINE
  8
0
 62
     0
 10
125.841
 20
1.62884
 30
0.0
 11
126.158
 21
1.57786
 31
0.0
  0
LINE
  8
0
 62
     0
 10
126.158
 20
1.57786
 30
0.0
 11
126.475
 21
1.62884
 31
0.0
  0
LINE
  8
0
 62
     0
 10
126.475
 20
1.62884
 30
0.0
 11
126.76
 21
1.77491
 31
0.0
  0
LINE
  8
0
 62
     0
 10
126.76
 20
1.77491
 30
0.0
 11
126.988
 21
2.00091
 31
0.0
  0
LINE
  8
0
 62
     0
 10
126.988
 20
2.00091
 30
0.0
 11
127.132
 21
2.28755
 31
0.0
  0
LINE
  8
0
 62
     0
 10
127.132
 20
2.28755
 30
0.0
 11
127.182
 21
2.60312
 31
0.0
  0
LINE
  8
0
 62
     0
 10
127.182
 20
2.60312
 30
0.0
 11
127.132
 21
2.92006
 31
0.0
  0
LINE
  8
0
 62
     0
 10
127.132
 20
2.92006
 30
0.0
 11
126.988
 21
3.20669
 31
0.0
  0
LINE
  8
0
 62
     0
 10
126.988
 20
3.20669
 30
0.0
 11
126.76
 21
3.43407
 31
0.0
  0
LINE
  8
0
 62
     0
 10
126.76
 20
3.43407
 30
0.0
 11
126.475
 21
3.57875
 31
0.0
  0
LINE
  8
0
 62
     0
 10
126.475
 20
3.57875
 30
0.0
 11
126.158
 21
3.62839
 31
0.0
  0
LINE
  8
0
 62
     0
 10
126.158
 20
3.62839
 30
0.0
 11
125.841
 21
3.57875
 31
0.0
  0
LINE
  8
0
 62
     0
 10
249.578
 20
3.57875
 30
0.0
 11
249.294
 21
3.43407
 31
0.0
  0
LINE
  8
0
 62
     0
 10
249.294
 20
3.43407
 30
0.0
 11
249.067
 21
3.20669
 31
0.0
  0
LINE
  8
0
 62
     0
 10
249.067
 20
3.20669
 30
0.0
 11
248.921
 21
2.92006
 31
0.0
  0
LINE
  8
0
 62
     0
 10
248.921
 20
2.92006
 30
0.0
 11
248.871
 21
2.60312
 31
0.0
  0
LINE
  8
0
 62
     0
 10
248.871
 20
2.60312
 30
0.0
 11
248.921
 21
2.28755
 31
0.0
  0
LINE
  8
0
 62
     0
 10
248.921
 20
2.28755
 30
0.0
 11
249.067
 21
2.00091
 31
0.0
  0
LINE
  8
0
 62
     0
 10
249.067
 20
2.00091
 30
0.0
 11
249.294
 21
1.77491
 31
0.0
  0
LINE
  8
0
 62
     0
 10
249.294
 20
1.77491
 30
0.0
 11
249.578
 21
1.62884
 31
0.0
  0
LINE
  8
0
 62
     0
 10
249.578
 20
1.62884
 30
0.0
 11
249.895
 21
1.57786
 31
0.0
  0
LINE
  8
0
 62
     0
 10
249.895
 20
1.57786
 30
0.0
 11
250.213
 21
1.62884
 31
0.0
  0
LINE
  8
0
 62
     0
 10
250.213
 20
1.62884
 30
0.0
 11
250.498
 21
1.77491
 31
0.0
  0
LINE
  8
0
 62
     0
 10
250.498
 20
1.77491
 30
0.0
 11
250.724
 21
2.00091
 31
0.0
  0
LINE
  8
0
 62
     0
 10
250.724
 20
2.00091
 30
0.0
 11
250.871
 21
2.28755
 31
0.0
  0
LINE
  8
0
 62
     0
 10
250.871
 20
2.28755
 30
0.0
 11
250.92
 21
2.60312
 31
0.0
  0
LINE
  8
0
 62
     0
 10
250.92
 20
2.60312
 30
0.0
 11
250.871
 21
2.92006
 31
0.0
  0
LINE
  8
0
 62
     0
 10
250.871
 20
2.92006
 30
0.0
 11
250.724
 21
3.20669
 31
0.0
  0
LINE
  8
0
 62
     0
 10
250.724
 20
3.20669
 30
0.0
 11
250.498
 21
3.43407
 31
0.0
  0
LINE
  8
0
 62
     0
 10
250.498
 20
3.43407
 30
0.0
 11
250.213
 21
3.57875
 31
0.0
  0
LINE
  8
0
 62
     0
 10
250.213
 20
3.57875
 30
0.0
 11
249.895
 21
3.62839
 31
0.0
  0
LINE
  8
0
 62
     0
 10
249.895
 20
3.62839
 30
0.0
 11
249.578
 21
3.57875
 31
0.0
  0
LINE
  8
0
 62
     0
 10
373.316
 20
3.57875
 30
0.0
 11
373.031
 21
3.43407
 31
0.0
  0
LINE
  8
0
 62
     0
 10
373.031
 20
3.43407
 30
0.0
 11
372.805
 21
3.20669
 31
0.0
  0
LINE
  8
0
 62
     0
 10
372.805
 20
3.20669
 30
0.0
 11
372.66
 21
2.92006
 31
0.0
  0
LINE
  8
0
 62
     0
 10
372.66
 20
2.92006
 30
0.0
 11
372.607
 21
2.60312
 31
0.0
  0
LINE
  8
0
 62
     0
 10
372.607
 20
2.60312
 30
0.0
 11
372.66
 21
2.28755
 31
0.0
  0
LINE
  8
0
 62
     0
 10
372.66
 20
2.28755
 30
0.0
 11
372.805
 21
2.00091
 31
0.0
  0
LINE
  8
0
 62
     0
 10
372.805
 20
2.00091
 30
0.0
 11
373.031
 21
1.77491
 31
0.0
  0
LINE
  8
0
 62
     0
 10
373.031
 20
1.77491
 30
0.0
 11
373.316
 21
1.62884
 31
0.0
  0
LINE
  8
0
 62
     0
 10
373.316
 20
1.62884
 30
0.0
 11
373.634
 21
1.57786
 31
0.0
  0
LINE
  8
0
 62
     0
 10
373.634
 20
1.57786
 30
0.0
 11
373.952
 21
1.62884
 31
0.0
  0
LINE
  8
0
 62
     0
 10
373.952
 20
1.62884
 30
0.0
 11
374.234
 21
1.77491
 31
0.0
  0
LINE
  8
0
 62
     0
 10
374.234
 20
1.77491
 30
0.0
 11
374.463
 21
2.00091
 31
0.0
  0
LINE
  8
0
 62
     0
 10
374.463
 20
2.00091
 30
0.0
 11
374.608
 21
2.28755
 31
0.0
  0
LINE
  8
0
 62
     0
 10
374.608
 20
2.28755
 30
0.0
 11
374.657
 21
2.60312
 31
0.0
  0
LINE
  8
0
 62
     0
 10
374.657
 20
2.60312
 30
0.0
 11
374.608
 21
2.92006
 31
0.0
  0
LINE
  8
0
 62
     0
 10
374.608
 20
2.92006
 30
0.0
 11
374.463
 21
3.20669
 31
0.0
  0
LINE
  8
0
 62
     0
 10
374.463
 20
3.20669
 30
0.0
 11
374.234
 21
3.43407
 31
0.0
  0
LINE
  8
0
 62
     0
 10
374.234
 20
3.43407
 30
0.0
 11
373.952
 21
3.57875
 31
0.0
  0
LINE
  8
0
 62
     0
 10
373.952
 20
3.57875
 30
0.0
 11
373.634
 21
3.62839
 31
0.0
  0
LINE
  8
0
 62
     0
 10
373.634
 20
3.62839
 30
0.0
 11
373.316
 21
3.57875
 31
0.0
  0
LINE
  8
0
 62
     0
 10
2.10289
 20
103.329
 30
0.0
 11
1.81763
 21
103.185
 31
0.0
  0
LINE
  8
0
 62
     0
 10
1.81763
 20
103.185
 30
0.0
 11
1.59026
 21
102.957
 31
0.0
  0
LINE
  8
0
 62
     0
 10
1.59026
 20
102.957
 30
0.0
 11
1.44556
 21
102.672
 31
0.0
  0
LINE
  8
0
 62
     0
 10
1.44556
 20
102.672
 30
0.0
 11
1.39595
 21
102.355
 31
0.0
  0
LINE
  8
0
 62
     0
 10
1.39595
 20
102.355
 30
0.0
 11
1.44556
 21
102.038
 31
0.0
  0
LINE
  8
0
 62
     0
 10
1.44556
 20
102.038
 30
0.0
 11
1.59026
 21
101.753
 31
0.0
  0
LINE
  8
0
 62
     0
 10
1.59026
 20
101.753
 30
0.0
 11
1.81763
 21
101.526
 31
0.0
  0
LINE
  8
0
 62
     0
 10
1.81763
 20
101.526
 30
0.0
 11
2.10289
 21
101.381
 31
0.0
  0
LINE
  8
0
 62
     0
 10
2.10289
 20
101.381
 30
0.0
 11
2.41984
 21
101.33
 31
0.0
  0
LINE
  8
0
 62
     0
 10
2.41984
 20
101.33
 30
0.0
 11
2.73678
 21
101.381
 31
0.0
  0
LINE
  8
0
 62
     0
 10
2.73678
 20
101.381
 30
0.0
 11
3.02204
 21
101.526
 31
0.0
  0
LINE
  8
0
 62
     0
 10
3.02204
 20
101.526
 30
0.0
 11
3.24942
 21
101.753
 31
0.0
  0
LINE
  8
0
 62
     0
 10
3.24942
 20
101.753
 30
0.0
 11
3.39411
 21
102.038
 31
0.0
  0
LINE
  8
0
 62
     0
 10
3.39411
 20
102.038
 30
0.0
 11
3.4451
 21
102.355
 31
0.0
  0
LINE
  8
0
 62
     0
 10
3.4451
 20
102.355
 30
0.0
 11
3.39411
 21
102.672
 31
0.0
  0
LINE
  8
0
 62
     0
 10
3.39411
 20
102.672
 30
0.0
 11
3.24942
 21
102.957
 31
0.0
  0
LINE
  8
0
 62
     0
 10
3.24942
 20
102.957
 30
0.0
 11
3.02204
 21
103.185
 31
0.0
  0
LINE
  8
0
 62
     0
 10
3.02204
 20
103.185
 30
0.0
 11
2.73678
 21
103.329
 31
0.0
  0
LINE
  8
0
 62
     0
 10
2.73678
 20
103.329
 30
0.0
 11
2.41984
 21
103.379
 31
0.0
  0
LINE
  8
0
 62
     0
 10
2.41984
 20
103.379
 30
0.0
 11
2.10289
 21
103.329
 31
0.0
  0
LINE
  8
0
 62
     0
 10
373.316
 20
103.329
 30
0.0
 11
373.031
 21
103.185
 31
0.0
  0
LINE
  8
0
 62
     0
 10
373.031
 20
103.185
 30
0.0
 11
372.805
 21
102.957
 31
0.0
  0
LINE
  8
0
 62
     0
 10
372.805
 20
102.957
 30
0.0
 11
372.66
 21
102.672
 31
0.0
  0
LINE
  8
0
 62
     0
 10
372.66
 20
102.672
 30
0.0
 11
372.607
 21
102.355
 31
0.0
  0
LINE
  8
0
 62
     0
 10
372.607
 20
102.355
 30
0.0
 11
372.66
 21
102.038
 31
0.0
  0
LINE
  8
0
 62
     0
 10
372.66
 20
102.038
 30
0.0
 11
372.805
 21
101.753
 31
0.0
  0
LINE
  8
0
 62
     0
 10
372.805
 20
101.753
 30
0.0
 11
373.031
 21
101.526
 31
0.0
  0
LINE
  8
0
 62
     0
 10
373.031
 20
101.526
 30
0.0
 11
373.316
 21
101.381
 31
0.0
  0
LINE
  8
0
 62
     0
 10
373.316
 20
101.381
 30
0.0
 11
373.634
 21
101.33
 31
0.0
  0
LINE
  8
0
 62
     0
 10
373.634
 20
101.33
 30
0.0
 11
373.952
 21
101.381
 31
0.0
  0
LINE
  8
0
 62
     0
 10
373.952
 20
101.381
 30
0.0
 11
374.234
 21
101.526
 31
0.0
  0
LINE
  8
0
 62
     0
 10
374.234
 20
101.526
 30
0.0
 11
374.463
 21
101.753
 31
0.0
  0
LINE
  8
0
 62
     0
 10
374.463
 20
101.753
 30
0.0
 11
374.608
 21
102.038
 31
0.0
  0
LINE
  8
0
 62
     0
 10
374.608
 20
102.038
 30
0.0
 11
374.657
 21
102.355
 31
0.0
  0
LINE
  8
0
 62
     0
 10
374.657
 20
102.355
 30
0.0
 11
374.608
 21
102.672
 31
0.0
  0
LINE
  8
0
 62
     0
 10
374.608
 20
102.672
 30
0.0
 11
374.463
 21
102.957
 31
0.0
  0
LINE
  8
0
 62
     0
 10
374.463
 20
102.957
 30
0.0
 11
374.234
 21
103.185
 31
0.0
  0
LINE
  8
0
 62
     0
 10
374.234
 20
103.185
 30
0.0
 11
373.952
 21
103.329
 31
0.0
  0
LINE
  8
0
 62
     0
 10
373.952
 20
103.329
 30
0.0
 11
373.634
 21
103.379
 31
0.0
  0
LINE
  8
0
 62
     0
 10
373.634
 20
103.379
 30
0.0
 11
373.316
 21
103.329
 31
0.0
  0
LINE
  8
0
 62
     0
 10
249.578
 20
103.329
 30
0.0
 11
249.294
 21
103.185
 31
0.0
  0
LINE
  8
0
 62
     0
 10
249.294
 20
103.185
 30
0.0
 11
249.067
 21
102.957
 31
0.0
  0
LINE
  8
0
 62
     0
 10
249.067
 20
102.957
 30
0.0
 11
248.921
 21
102.672
 31
0.0
  0
LINE
  8
0
 62
     0
 10
248.921
 20
102.672
 30
0.0
 11
248.871
 21
102.355
 31
0.0
  0
LINE
  8
0
 62
     0
 10
248.871
 20
102.355
 30
0.0
 11
248.921
 21
102.038
 31
0.0
  0
LINE
  8
0
 62
     0
 10
248.921
 20
102.038
 30
0.0
 11
249.067
 21
101.753
 31
0.0
  0
LINE
  8
0
 62
     0
 10
249.067
 20
101.753
 30
0.0
 11
249.294
 21
101.526
 31
0.0
  0
LINE
  8
0
 62
     0
 10
249.294
 20
101.526
 30
0.0
 11
249.578
 21
101.381
 31
0.0
  0
LINE
  8
0
 62
     0
 10
249.578
 20
101.381
 30
0.0
 11
249.895
 21
101.33
 31
0.0
  0
LINE
  8
0
 62
     0
 10
249.895
 20
101.33
 30
0.0
 11
250.213
 21
101.381
 31
0.0
  0
LINE
  8
0
 62
     0
 10
250.213
 20
101.381
 30
0.0
 11
250.498
 21
101.526
 31
0.0
  0
LINE
  8
0
 62
     0
 10
250.498
 20
101.526
 30
0.0
 11
250.724
 21
101.753
 31
0.0
  0
LINE
  8
0
 62
     0
 10
250.724
 20
101.753
 30
0.0
 11
250.871
 21
102.038
 31
0.0
  0
LINE
  8
0
 62
     0
 10
250.871
 20
102.038
 30
0.0
 11
250.92
 21
102.355
 31
0.0
  0
LINE
  8
0
 62
     0
 10
250.92
 20
102.355
 30
0.0
 11
250.871
 21
102.672
 31
0.0
  0
LINE
  8
0
 62
     0
 10
250.871
 20
102.672
 30
0.0
 11
250.724
 21
102.957
 31
0.0
  0
LINE
  8
0
 62
     0
 10
250.724
 20
102.957
 30
0.0
 11
250.498
 21
103.185
 31
0.0
  0
LINE
  8
0
 62
     0
 10
250.498
 20
103.185
 30
0.0
 11
250.213
 21
103.329
 31
0.0
  0
LINE
  8
0
 62
     0
 10
250.213
 20
103.329
 30
0.0
 11
249.895
 21
103.379
 31
0.0
  0
LINE
  8
0
 62
     0
 10
249.895
 20
103.379
 30
0.0
 11
249.578
 21
103.329
 31
0.0
  0
LINE
  8
0
 62
     0
 10
125.841
 20
103.329
 30
0.0
 11
125.556
 21
103.185
 31
0.0
  0
LINE
  8
0
 62
     0
 10
125.556
 20
103.185
 30
0.0
 11
125.329
 21
102.957
 31
0.0
  0
LINE
  8
0
 62
     0
 10
125.329
 20
102.957
 30
0.0
 11
125.184
 21
102.672
 31
0.0
  0
LINE
  8
0
 62
     0
 10
125.184
 20
102.672
 30
0.0
 11
125.133
 21
102.355
 31
0.0
  0
LINE
  8
0
 62
     0
 10
125.133
 20
102.355
 30
0.0
 11
125.184
 21
102.038
 31
0.0
  0
LINE
  8
0
 62
     0
 10
125.184
 20
102.038
 30
0.0
 11
125.329
 21
101.753
 31
0.0
  0
LINE
  8
0
 62
     0
 10
125.329
 20
101.753
 30
0.0
 11
125.556
 21
101.526
 31
0.0
  0
LINE
  8
0
 62
     0
 10
125.556
 20
101.526
 30
0.0
 11
125.841
 21
101.381
 31
0.0
  0
LINE
  8
0
 62
     0
 10
125.841
 20
101.381
 30
0.0
 11
126.158
 21
101.33
 31
0.0
  0
LINE
  8
0
 62
     0
 10
126.158
 20
101.33
 30
0.0
 11
126.475
 21
101.381
 31
0.0
  0
LINE
  8
0
 62
     0
 10
126.475
 20
101.381
 30
0.0
 11
126.76
 21
101.526
 31
0.0
  0
LINE
  8
0
 62
     0
 10
126.76
 20
101.526
 30
0.0
 11
126.988
 21
101.753
 31
0.0
  0
LINE
  8
0
 62
     0
 10
126.988
 20
101.753
 30
0.0
 11
127.132
 21
102.038
 31
0.0
  0
LINE
  8
0
 62
     0
 10
127.132
 20
102.038
 30
0.0
 11
127.182
 21
102.355
 31
0.0
  0
LINE
  8
0
 62
     0
 10
127.182
 20
102.355
 30
0.0
 11
127.132
 21
102.672
 31
0.0
  0
LINE
  8
0
 62
     0
 10
127.132
 20
102.672
 30
0.0
 11
126.988
 21
102.957
 31
0.0
  0
LINE
  8
0
 62
     0
 10
126.988
 20
102.957
 30
0.0
 11
126.76
 21
103.185
 31
0.0
  0
LINE
  8
0
 62
     0
 10
126.76
 20
103.185
 30
0.0
 11
126.475
 21
103.329
 31
0.0
  0
LINE
  8
0
 62
     0
 10
126.475
 20
103.329
 30
0.0
 11
126.158
 21
103.379
 31
0.0
  0
LINE
  8
0
 62
     0
 10
126.158
 20
103.379
 30
0.0
 11
125.841
 21
103.329
 31
0.0
  0
ENDSEC
  0
EOF
