  0
SECTION
  2
HEADER
  9
$ACADVER
  1
AC1009
  9
$EXTMIN
 10
0.0
 20
0.0
 30
0.0
  9
$EXTMAX
 10
1000.0
 20
1000.0
 30
0.0
  9
$FILLMODE
 70
 0
  9
$SPLFRAME
 70
 1
  0
ENDSEC
  0
SECTION
  2
TABLES
  0
TABLE
  2
LAYER
 70
1
  0
LAYER
  2
0
 70
     0
 62
     7
  6
CONTINUOUS
  0
ENDTAB
  0
ENDSEC
  0
SECTION
  2
ENTITIES
  0
LINE
  8
0
 62
     0
 10
373.959
 20
104.68
 30
0.0
 11
374.114
 21
104.673
 31
0.0
  0
LINE
  8
0
 62
     0
 10
374.114
 20
104.673
 30
0.0
 11
374.273
 21
104.655
 31
0.0
  0
LINE
  8
0
 62
     0
 10
374.273
 20
104.655
 30
0.0
 11
374.424
 21
104.625
 31
0.0
  0
LINE
  8
0
 62
     0
 10
374.424
 20
104.625
 30
0.0
 11
374.576
 21
104.582
 31
0.0
  0
LINE
  8
0
 62
     0
 10
374.576
 20
104.582
 30
0.0
 11
374.724
 21
104.527
 31
0.0
  0
LINE
  8
0
 62
     0
 10
374.724
 20
104.527
 30
0.0
 11
374.865
 21
104.462
 31
0.0
  0
LINE
  8
0
 62
     0
 10
374.865
 20
104.462
 30
0.0
 11
375.003
 21
104.385
 31
0.0
  0
LINE
  8
0
 62
     0
 10
375.003
 20
104.385
 30
0.0
 11
375.137
 21
104.298
 31
0.0
  0
LINE
  8
0
 62
     0
 10
375.137
 20
104.298
 30
0.0
 11
375.257
 21
104.2
 31
0.0
  0
LINE
  8
0
 62
     0
 10
375.257
 20
104.2
 30
0.0
 11
375.373
 21
104.094
 31
0.0
  0
LINE
  8
0
 62
     0
 10
375.373
 20
104.094
 30
0.0
 11
375.479
 21
103.978
 31
0.0
  0
LINE
  8
0
 62
     0
 10
375.479
 20
103.978
 30
0.0
 11
375.578
 21
103.856
 31
0.0
  0
LINE
  8
0
 62
     0
 10
375.578
 20
103.856
 30
0.0
 11
375.662
 21
103.725
 31
0.0
  0
LINE
  8
0
 62
     0
 10
375.662
 20
103.725
 30
0.0
 11
375.74
 21
103.587
 31
0.0
  0
LINE
  8
0
 62
     0
 10
375.74
 20
103.587
 30
0.0
 11
375.807
 21
103.445
 31
0.0
  0
LINE
  8
0
 62
     0
 10
375.807
 20
103.445
 30
0.0
 11
375.86
 21
103.299
 31
0.0
  0
LINE
  8
0
 62
     0
 10
375.86
 20
103.299
 30
0.0
 11
375.902
 21
103.146
 31
0.0
  0
LINE
  8
0
 62
     0
 10
375.902
 20
103.146
 30
0.0
 11
375.934
 21
102.993
 31
0.0
  0
LINE
  8
0
 62
     0
 10
375.934
 20
102.993
 30
0.0
 11
375.952
 21
102.836
 31
0.0
  0
LINE
  8
0
 62
     0
 10
375.952
 20
102.836
 30
0.0
 11
375.959
 21
102.679
 31
0.0
  0
LINE
  8
0
 62
     0
 10
375.959
 20
102.679
 30
0.0
 11
375.959
 21
2.2779
 31
0.0
  0
LINE
  8
0
 62
     0
 10
375.959
 20
2.2779
 30
0.0
 11
375.952
 21
2.12218
 31
0.0
  0
LINE
  8
0
 62
     0
 10
375.952
 20
2.12218
 30
0.0
 11
375.934
 21
1.96646
 31
0.0
  0
LINE
  8
0
 62
     0
 10
375.934
 20
1.96646
 30
0.0
 11
375.902
 21
1.81212
 31
0.0
  0
LINE
  8
0
 62
     0
 10
375.902
 20
1.81212
 30
0.0
 11
375.86
 21
1.66054
 31
0.0
  0
LINE
  8
0
 62
     0
 10
375.86
 20
1.66054
 30
0.0
 11
375.807
 21
1.51309
 31
0.0
  0
LINE
  8
0
 62
     0
 10
375.807
 20
1.51309
 30
0.0
 11
375.74
 21
1.37115
 31
0.0
  0
LINE
  8
0
 62
     0
 10
375.74
 20
1.37115
 30
0.0
 11
375.662
 21
1.23472
 31
0.0
  0
LINE
  8
0
 62
     0
 10
375.662
 20
1.23472
 30
0.0
 11
375.578
 21
1.10381
 31
0.0
  0
LINE
  8
0
 62
     0
 10
375.578
 20
1.10381
 30
0.0
 11
375.479
 21
0.981163
 31
0.0
  0
LINE
  8
0
 62
     0
 10
375.479
 20
0.981163
 30
0.0
 11
375.373
 21
0.86403
 31
0.0
  0
LINE
  8
0
 62
     0
 10
375.373
 20
0.86403
 30
0.0
 11
375.257
 21
0.757922
 31
0.0
  0
LINE
  8
0
 62
     0
 10
375.257
 20
0.757922
 30
0.0
 11
375.137
 21
0.660079
 31
0.0
  0
LINE
  8
0
 62
     0
 10
375.137
 20
0.660079
 30
0.0
 11
375.003
 21
0.573264
 31
0.0
  0
LINE
  8
0
 62
     0
 10
375.003
 20
0.573264
 30
0.0
 11
374.865
 21
0.496094
 31
0.0
  0
LINE
  8
0
 62
     0
 10
374.865
 20
0.496094
 30
0.0
 11
374.724
 21
0.431327
 31
0.0
  0
LINE
  8
0
 62
     0
 10
374.724
 20
0.431327
 30
0.0
 11
374.576
 21
0.376206
 31
0.0
  0
LINE
  8
0
 62
     0
 10
374.576
 20
0.376206
 30
0.0
 11
374.424
 21
0.334863
 31
0.0
  0
LINE
  8
0
 62
     0
 10
374.424
 20
0.334863
 30
0.0
 11
374.273
 21
0.303168
 31
0.0
  0
LINE
  8
0
 62
     0
 10
374.273
 20
0.303168
 30
0.0
 11
374.114
 21
0.285254
 31
0.0
  0
LINE
  8
0
 62
     0
 10
374.114
 20
0.285254
 30
0.0
 11
373.959
 21
0.279742
 31
0.0
  0
LINE
  8
0
 62
     0
 10
373.959
 20
0.279742
 30
0.0
 11
2.096
 21
0.278364
 31
0.0
  0
LINE
  8
0
 62
     0
 10
2.096
 20
0.278364
 30
0.0
 11
1.9389
 21
0.285254
 31
0.0
  0
LINE
  8
0
 62
     0
 10
1.9389
 20
0.285254
 30
0.0
 11
1.7818
 21
0.303168
 31
0.0
  0
LINE
  8
0
 62
     0
 10
1.7818
 20
0.303168
 30
0.0
 11
1.62884
 21
0.334863
 31
0.0
  0
LINE
  8
0
 62
     0
 10
1.62884
 20
0.334863
 30
0.0
 11
1.47588
 21
0.376206
 31
0.0
  0
LINE
  8
0
 62
     0
 10
1.47588
 20
0.376206
 30
0.0
 11
1.32981
 21
0.431327
 31
0.0
  0
LINE
  8
0
 62
     0
 10
1.32981
 20
0.431327
 30
0.0
 11
1.18787
 21
0.496094
 31
0.0
  0
LINE
  8
0
 62
     0
 10
1.18787
 20
0.496094
 30
0.0
 11
1.05006
 21
0.573264
 31
0.0
  0
LINE
  8
0
 62
     0
 10
1.05006
 20
0.573264
 30
0.0
 11
0.919152
 21
0.660079
 31
0.0
  0
LINE
  8
0
 62
     0
 10
0.919152
 20
0.660079
 30
0.0
 11
0.796505
 21
0.757922
 31
0.0
  0
LINE
  8
0
 62
     0
 10
0.796505
 20
0.757922
 30
0.0
 11
0.680752
 21
0.86403
 31
0.0
  0
LINE
  8
0
 62
     0
 10
0.680752
 20
0.86403
 30
0.0
 11
0.574643
 21
0.981163
 31
0.0
  0
LINE
  8
0
 62
     0
 10
0.574643
 20
0.981163
 30
0.0
 11
0.4768
 21
1.10381
 31
0.0
  0
LINE
  8
0
 62
     0
 10
0.4768
 20
1.10381
 30
0.0
 11
0.389985
 21
1.23472
 31
0.0
  0
LINE
  8
0
 62
     0
 10
0.389985
 20
1.23472
 30
0.0
 11
0.312815
 21
1.37115
 31
0.0
  0
LINE
  8
0
 62
     0
 10
0.312815
 20
1.37115
 30
0.0
 11
0.248047
 21
1.51309
 31
0.0
  0
LINE
  8
0
 62
     0
 10
0.248047
 20
1.51309
 30
0.0
 11
0.192925
 21
1.66054
 31
0.0
  0
LINE
  8
0
 62
     0
 10
0.192925
 20
1.66054
 30
0.0
 11
0.150206
 21
1.81212
 31
0.0
  0
LINE
  8
0
 62
     0
 10
0.150206
 20
1.81212
 30
0.0
 11
0.119889
 21
1.96646
 31
0.0
  0
LINE
  8
0
 62
     0
 10
0.119889
 20
1.96646
 30
0.0
 11
0.101975
 21
2.12218
 31
0.0
  0
LINE
  8
0
 62
     0
 10
0.101975
 20
2.12218
 30
0.0
 11
0.0950846
 21
2.2779
 31
0.0
  0
LINE
  8
0
 62
     0
 10
0.0950846
 20
2.2779
 30
0.0
 11
0.0950846
 21
102.679
 31
0.0
  0
LINE
  8
0
 62
     0
 10
0.0950846
 20
102.679
 30
0.0
 11
0.101975
 21
102.836
 31
0.0
  0
LINE
  8
0
 62
     0
 10
0.101975
 20
102.836
 30
0.0
 11
0.119889
 21
102.993
 31
0.0
  0
LINE
  8
0
 62
     0
 10
0.119889
 20
102.993
 30
0.0
 11
0.150206
 21
103.146
 31
0.0
  0
LINE
  8
0
 62
     0
 10
0.150206
 20
103.146
 30
0.0
 11
0.192925
 21
103.299
 31
0.0
  0
LINE
  8
0
 62
     0
 10
0.192925
 20
103.299
 30
0.0
 11
0.248047
 21
103.445
 31
0.0
  0
LINE
  8
0
 62
     0
 10
0.248047
 20
103.445
 30
0.0
 11
0.312815
 21
103.587
 31
0.0
  0
LINE
  8
0
 62
     0
 10
0.312815
 20
103.587
 30
0.0
 11
0.389985
 21
103.725
 31
0.0
  0
LINE
  8
0
 62
     0
 10
0.389985
 20
103.725
 30
0.0
 11
0.4768
 21
103.856
 31
0.0
  0
LINE
  8
0
 62
     0
 10
0.4768
 20
103.856
 30
0.0
 11
0.574643
 21
103.978
 31
0.0
  0
LINE
  8
0
 62
     0
 10
0.574643
 20
103.978
 30
0.0
 11
0.680752
 21
104.094
 31
0.0
  0
LINE
  8
0
 62
     0
 10
0.680752
 20
104.094
 30
0.0
 11
0.796505
 21
104.2
 31
0.0
  0
LINE
  8
0
 62
     0
 10
0.796505
 20
104.2
 30
0.0
 11
0.919152
 21
104.298
 31
0.0
  0
LINE
  8
0
 62
     0
 10
0.919152
 20
104.298
 30
0.0
 11
1.05006
 21
104.385
 31
0.0
  0
LINE
  8
0
 62
     0
 10
1.05006
 20
104.385
 30
0.0
 11
1.18787
 21
104.462
 31
0.0
  0
LINE
  8
0
 62
     0
 10
1.18787
 20
104.462
 30
0.0
 11
1.32981
 21
104.527
 31
0.0
  0
LINE
  8
0
 62
     0
 10
1.32981
 20
104.527
 30
0.0
 11
1.47588
 21
104.582
 31
0.0
  0
LINE
  8
0
 62
     0
 10
1.47588
 20
104.582
 30
0.0
 11
1.62884
 21
104.625
 31
0.0
  0
LINE
  8
0
 62
     0
 10
1.62884
 20
104.625
 30
0.0
 11
1.7818
 21
104.655
 31
0.0
  0
LINE
  8
0
 62
     0
 10
1.7818
 20
104.655
 30
0.0
 11
1.9389
 21
104.673
 31
0.0
  0
LINE
  8
0
 62
     0
 10
1.9389
 20
104.673
 30
0.0
 11
2.096
 21
104.68
 31
0.0
  0
LINE
  8
0
 62
     0
 10
2.096
 20
104.68
 30
0.0
 11
373.959
 21
104.68
 31
0.0
  0
LINE
  8
0
 62
     0
 10
2.10289
 20
3.57875
 30
0.0
 11
1.81763
 21
3.43407
 31
0.0
  0
LINE
  8
0
 62
     0
 10
1.81763
 20
3.43407
 30
0.0
 11
1.59026
 21
3.20669
 31
0.0
  0
LINE
  8
0
 62
     0
 10
1.59026
 20
3.20669
 30
0.0
 11
1.44556
 21
2.92006
 31
0.0
  0
LINE
  8
0
 62
     0
 10
1.44556
 20
2.92006
 30
0.0
 11
1.39595
 21
2.60312
 31
0.0
  0
LINE
  8
0
 62
     0
 10
1.39595
 20
2.60312
 30
0.0
 11
1.44556
 21
2.28755
 31
0.0
  0
LINE
  8
0
 62
     0
 10
1.44556
 20
2.28755
 30
0.0
 11
1.59026
 21
2.00091
 31
0.0
  0
LINE
  8
0
 62
     0
 10
1.59026
 20
2.00091
 30
0.0
 11
1.81763
 21
1.77491
 31
0.0
  0
LINE
  8
0
 62
     0
 10
1.81763
 20
1.77491
 30
0.0
 11
2.10289
 21
1.62884
 31
0.0
  0
LINE
  8
0
 62
     0
 10
2.10289
 20
1.62884
 30
0.0
 11
2.41984
 21
1.57786
 31
0.0
  0
LINE
  8
0
 62
     0
 10
2.41984
 20
1.57786
 30
0.0
 11
2.73678
 21
1.62884
 31
0.0
  0
LINE
  8
0
 62
     0
 10
2.73678
 20
1.62884
 30
0.0
 11
3.02204
 21
1.77491
 31
0.0
  0
LINE
  8
0
 62
     0
 10
3.02204
 20
1.77491
 30
0.0
 11
3.24942
 21
2.00091
 31
0.0
  0
LINE
  8
0
 62
     0
 10
3.24942
 20
2.00091
 30
0.0
 11
3.39411
 21
2.28755
 31
0.0
  0
LINE
  8
0
 62
     0
 10
3.39411
 20
2.28755
 30
0.0
 11
3.4451
 21
2.60312
 31
0.0
  0
LINE
  8
0
 62
     0
 10
3.4451
 20
2.60312
 30
0.0
 11
3.39411
 21
2.92006
 31
0.0
  0
LINE
  8
0
 62
     0
 10
3.39411
 20
2.92006
 30
0.0
 11
3.24942
 21
3.20669
 31
0.0
  0
LINE
  8
0
 62
     0
 10
3.24942
 20
3.20669
 30
0.0
 11
3.02204
 21
3.43407
 31
0.0
  0
LINE
  8
0
 62
     0
 10
3.02204
 20
3.43407
 30
0.0
 11
2.73678
 21
3.57875
 31
0.0
  0
LINE
  8
0
 62
     0
 10
2.73678
 20
3.57875
 30
0.0
 11
2.41984
 21
3.62839
 31
0.0
  0
LINE
  8
0
 62
     0
 10
2.41984
 20
3.62839
 30
0.0
 11
2.10289
 21
3.57875
 31
0.0
  0
LINE
  8
0
 62
     0
 10
125.841
 20
3.57875
 30
0.0
 11
125.556
 21
3.43407
 31
0.0
  0
LINE
  8
0
 62
     0
 10
125.556
 20
3.43407
 30
0.0
 11
125.329
 21
3.20669
 31
0.0
  0
LINE
  8
0
 62
     0
 10
125.329
 20
3.20669
 30
0.0
 11
125.184
 21
2.92006
 31
0.0
  0
LINE
  8
0
 62
     0
 10
125.184
 20
2.92006
 30
0.0
 11
125.133
 21
2.60312
 31
0.0
  0
LINE
  8
0
 62
     0
 10
125.133
 20
2.60312
 30
0.0
 11
125.184
 21
2.28755
 31
0.0
  0
LINE
  8
0
 62
     0
 10
125.184
 20
2.28755
 30
0.0
 11
125.329
 21
2.00091
 31
0.0
  0
LINE
  8
0
 62
     0
 10
125.329
 20
2.00091
 30
0.0
 11
125.556
 21
1.77491
 31
0.0
  0
LINE
  8
0
 62
     0
 10
125.556
 20
1.77491
 30
0.0
 11
125.841
 21
1.62884
 31
0.0
  0
LINE
  8
0
 62
     0
 10
125.841
 20
1.62884
 30
0.0
 11
126.158
 21
1.57786
 31
0.0
  0
LINE
  8
0
 62
     0
 10
126.158
 20
1.57786
 30
0.0
 11
126.475
 21
1.62884
 31
0.0
  0
LINE
  8
0
 62
     0
 10
126.475
 20
1.62884
 30
0.0
 11
126.76
 21
1.77491
 31
0.0
  0
LINE
  8
0
 62
     0
 10
126.76
 20
1.77491
 30
0.0
 11
126.988
 21
2.00091
 31
0.0
  0
LINE
  8
0
 62
     0
 10
126.988
 20
2.00091
 30
0.0
 11
127.132
 21
2.28755
 31
0.0
  0
LINE
  8
0
 62
     0
 10
127.132
 20
2.28755
 30
0.0
 11
127.182
 21
2.60312
 31
0.0
  0
LINE
  8
0
 62
     0
 10
127.182
 20
2.60312
 30
0.0
 11
127.132
 21
2.92006
 31
0.0
  0
LINE
  8
0
 62
     0
 10
127.132
 20
2.92006
 30
0.0
 11
126.988
 21
3.20669
 31
0.0
  0
LINE
  8
0
 62
     0
 10
126.988
 20
3.20669
 30
0.0
 11
126.76
 21
3.43407
 31
0.0
  0
LINE
  8
0
 62
     0
 10
126.76
 20
3.43407
 30
0.0
 11
126.475
 21
3.57875
 31
0.0
  0
LINE
  8
0
 62
     0
 10
126.475
 20
3.57875
 30
0.0
 11
126.158
 21
3.62839
 31
0.0
  0
LINE
  8
0
 62
     0
 10
126.158
 20
3.62839
 30
0.0
 11
125.841
 21
3.57875
 31
0.0
  0
LINE
  8
0
 62
     0
 10
249.578
 20
3.57875
 30
0.0
 11
249.294
 21
3.43407
 31
0.0
  0
LINE
  8
0
 62
     0
 10
249.294
 20
3.43407
 30
0.0
 11
249.067
 21
3.20669
 31
0.0
  0
LINE
  8
0
 62
     0
 10
249.067
 20
3.20669
 30
0.0
 11
248.921
 21
2.92006
 31
0.0
  0
LINE
  8
0
 62
     0
 10
248.921
 20
2.92006
 30
0.0
 11
248.871
 21
2.60312
 31
0.0
  0
LINE
  8
0
 62
     0
 10
248.871
 20
2.60312
 30
0.0
 11
248.921
 21
2.28755
 31
0.0
  0
LINE
  8
0
 62
     0
 10
248.921
 20
2.28755
 30
0.0
 11
249.067
 21
2.00091
 31
0.0
  0
LINE
  8
0
 62
     0
 10
249.067
 20
2.00091
 30
0.0
 11
249.294
 21
1.77491
 31
0.0
  0
LINE
  8
0
 62
     0
 10
249.294
 20
1.77491
 30
0.0
 11
249.578
 21
1.62884
 31
0.0
  0
LINE
  8
0
 62
     0
 10
249.578
 20
1.62884
 30
0.0
 11
249.895
 21
1.57786
 31
0.0
  0
LINE
  8
0
 62
     0
 10
249.895
 20
1.57786
 30
0.0
 11
250.213
 21
1.62884
 31
0.0
  0
LINE
  8
0
 62
     0
 10
250.213
 20
1.62884
 30
0.0
 11
250.498
 21
1.77491
 31
0.0
  0
LINE
  8
0
 62
     0
 10
250.498
 20
1.77491
 30
0.0
 11
250.724
 21
2.00091
 31
0.0
  0
LINE
  8
0
 62
     0
 10
250.724
 20
2.00091
 30
0.0
 11
250.871
 21
2.28755
 31
0.0
  0
LINE
  8
0
 62
     0
 10
250.871
 20
2.28755
 30
0.0
 11
250.92
 21
2.60312
 31
0.0
  0
LINE
  8
0
 62
     0
 10
250.92
 20
2.60312
 30
0.0
 11
250.871
 21
2.92006
 31
0.0
  0
LINE
  8
0
 62
     0
 10
250.871
 20
2.92006
 30
0.0
 11
250.724
 21
3.20669
 31
0.0
  0
LINE
  8
0
 62
     0
 10
250.724
 20
3.20669
 30
0.0
 11
250.498
 21
3.43407
 31
0.0
  0
LINE
  8
0
 62
     0
 10
250.498
 20
3.43407
 30
0.0
 11
250.213
 21
3.57875
 31
0.0
  0
LINE
  8
0
 62
     0
 10
250.213
 20
3.57875
 30
0.0
 11
249.895
 21
3.62839
 31
0.0
  0
LINE
  8
0
 62
     0
 10
249.895
 20
3.62839
 30
0.0
 11
249.578
 21
3.57875
 31
0.0
  0
LINE
  8
0
 62
     0
 10
373.316
 20
3.57875
 30
0.0
 11
373.031
 21
3.43407
 31
0.0
  0
LINE
  8
0
 62
     0
 10
373.031
 20
3.43407
 30
0.0
 11
372.805
 21
3.20669
 31
0.0
  0
LINE
  8
0
 62
     0
 10
372.805
 20
3.20669
 30
0.0
 11
372.66
 21
2.92006
 31
0.0
  0
LINE
  8
0
 62
     0
 10
372.66
 20
2.92006
 30
0.0
 11
372.607
 21
2.60312
 31
0.0
  0
LINE
  8
0
 62
     0
 10
372.607
 20
2.60312
 30
0.0
 11
372.66
 21
2.28755
 31
0.0
  0
LINE
  8
0
 62
     0
 10
372.66
 20
2.28755
 30
0.0
 11
372.805
 21
2.00091
 31
0.0
  0
LINE
  8
0
 62
     0
 10
372.805
 20
2.00091
 30
0.0
 11
373.031
 21
1.77491
 31
0.0
  0
LINE
  8
0
 62
     0
 10
373.031
 20
1.77491
 30
0.0
 11
373.316
 21
1.62884
 31
0.0
  0
LINE
  8
0
 62
     0
 10
373.316
 20
1.62884
 30
0.0
 11
373.634
 21
1.57786
 31
0.0
  0
LINE
  8
0
 62
     0
 10
373.634
 20
1.57786
 30
0.0
 11
373.952
 21
1.62884
 31
0.0
  0
LINE
  8
0
 62
     0
 10
373.952
 20
1.62884
 30
0.0
 11
374.234
 21
1.77491
 31
0.0
  0
LINE
  8
0
 62
     0
 10
374.234
 20
1.77491
 30
0.0
 11
374.463
 21
2.00091
 31
0.0
  0
LINE
  8
0
 62
     0
 10
374.463
 20
2.00091
 30
0.0
 11
374.608
 21
2.28755
 31
0.0
  0
LINE
  8
0
 62
     0
 10
374.608
 20
2.28755
 30
0.0
 11
374.657
 21
2.60312
 31
0.0
  0
LINE
  8
0
 62
     0
 10
374.657
 20
2.60312
 30
0.0
 11
374.608
 21
2.92006
 31
0.0
  0
LINE
  8
0
 62
     0
 10
374.608
 20
2.92006
 30
0.0
 11
374.463
 21
3.20669
 31
0.0
  0
LINE
  8
0
 62
     0
 10
374.463
 20
3.20669
 30
0.0
 11
374.234
 21
3.43407
 31
0.0
  0
LINE
  8
0
 62
     0
 10
374.234
 20
3.43407
 30
0.0
 11
373.952
 21
3.57875
 31
0.0
  0
LINE
  8
0
 62
     0
 10
373.952
 20
3.57875
 30
0.0
 11
373.634
 21
3.62839
 31
0.0
  0
LINE
  8
0
 62
     0
 10
373.634
 20
3.62839
 30
0.0
 11
373.316
 21
3.57875
 31
0.0
  0
LINE
  8
0
 62
     0
 10
307.308
 20
21.3045
 30
0.0
 11
307.308
 21
16.604
 31
0.0
  0
LINE
  8
0
 62
     0
 10
307.308
 20
16.604
 30
0.0
 11
305.632
 21
16.604
 31
0.0
  0
LINE
  8
0
 62
     0
 10
305.632
 20
16.604
 30
0.0
 11
305.632
 21
19.8341
 31
0.0
  0
LINE
  8
0
 62
     0
 10
305.632
 20
19.8341
 30
0.0
 11
303.907
 21
19.8341
 31
0.0
  0
LINE
  8
0
 62
     0
 10
303.907
 20
19.8341
 30
0.0
 11
303.907
 21
20.7546
 31
0.0
  0
LINE
  8
0
 62
     0
 10
303.907
 20
20.7546
 30
0.0
 11
300.757
 21
20.7546
 31
0.0
  0
LINE
  8
0
 62
     0
 10
300.757
 20
20.7546
 30
0.0
 11
300.757
 21
19.8341
 31
0.0
  0
LINE
  8
0
 62
     0
 10
300.757
 20
19.8341
 30
0.0
 11
299.033
 21
19.8341
 31
0.0
  0
LINE
  8
0
 62
     0
 10
299.033
 20
19.8341
 30
0.0
 11
299.033
 21
16.604
 31
0.0
  0
LINE
  8
0
 62
     0
 10
299.033
 20
16.604
 30
0.0
 11
298.208
 21
16.604
 31
0.0
  0
LINE
  8
0
 62
     0
 10
298.208
 20
16.604
 30
0.0
 11
298.208
 21
13.954
 31
0.0
  0
LINE
  8
0
 62
     0
 10
298.208
 20
13.954
 30
0.0
 11
299.033
 21
13.954
 31
0.0
  0
LINE
  8
0
 62
     0
 10
299.033
 20
13.954
 30
0.0
 11
299.033
 21
7.68533
 31
0.0
  0
LINE
  8
0
 62
     0
 10
299.033
 20
7.68533
 30
0.0
 11
300.757
 21
7.68533
 31
0.0
  0
LINE
  8
0
 62
     0
 10
300.757
 20
7.68533
 30
0.0
 11
300.757
 21
6.70415
 31
0.0
  0
LINE
  8
0
 62
     0
 10
300.757
 20
6.70415
 30
0.0
 11
303.907
 21
6.70415
 31
0.0
  0
LINE
  8
0
 62
     0
 10
303.907
 20
6.70415
 30
0.0
 11
303.907
 21
7.68533
 31
0.0
  0
LINE
  8
0
 62
     0
 10
303.907
 20
7.68533
 30
0.0
 11
305.632
 21
7.68533
 31
0.0
  0
LINE
  8
0
 62
     0
 10
305.632
 20
7.68533
 30
0.0
 11
305.632
 21
12.1557
 31
0.0
  0
LINE
  8
0
 62
     0
 10
305.632
 20
12.1557
 30
0.0
 11
307.308
 21
12.1557
 31
0.0
  0
LINE
  8
0
 62
     0
 10
307.308
 20
12.1557
 30
0.0
 11
307.308
 21
7.45518
 31
0.0
  0
LINE
  8
0
 62
     0
 10
307.308
 20
7.45518
 30
0.0
 11
321.157
 21
7.45518
 31
0.0
  0
LINE
  8
0
 62
     0
 10
321.157
 20
7.45518
 30
0.0
 11
321.157
 21
12.1557
 31
0.0
  0
LINE
  8
0
 62
     0
 10
321.157
 20
12.1557
 30
0.0
 11
322.833
 21
12.1557
 31
0.0
  0
LINE
  8
0
 62
     0
 10
322.833
 20
12.1557
 30
0.0
 11
322.833
 21
7.68533
 31
0.0
  0
LINE
  8
0
 62
     0
 10
322.833
 20
7.68533
 30
0.0
 11
324.557
 21
7.68533
 31
0.0
  0
LINE
  8
0
 62
     0
 10
324.557
 20
7.68533
 30
0.0
 11
324.557
 21
6.70415
 31
0.0
  0
LINE
  8
0
 62
     0
 10
324.557
 20
6.70415
 30
0.0
 11
327.707
 21
6.70415
 31
0.0
  0
LINE
  8
0
 62
     0
 10
327.707
 20
6.70415
 30
0.0
 11
327.707
 21
7.68533
 31
0.0
  0
LINE
  8
0
 62
     0
 10
327.707
 20
7.68533
 30
0.0
 11
329.432
 21
7.68533
 31
0.0
  0
LINE
  8
0
 62
     0
 10
329.432
 20
7.68533
 30
0.0
 11
329.432
 21
13.954
 31
0.0
  0
LINE
  8
0
 62
     0
 10
329.432
 20
13.954
 30
0.0
 11
330.258
 21
13.954
 31
0.0
  0
LINE
  8
0
 62
     0
 10
330.258
 20
13.954
 30
0.0
 11
330.258
 21
16.604
 31
0.0
  0
LINE
  8
0
 62
     0
 10
330.258
 20
16.604
 30
0.0
 11
329.432
 21
16.604
 31
0.0
  0
LINE
  8
0
 62
     0
 10
329.432
 20
16.604
 30
0.0
 11
329.432
 21
19.8341
 31
0.0
  0
LINE
  8
0
 62
     0
 10
329.432
 20
19.8341
 30
0.0
 11
327.707
 21
19.8341
 31
0.0
  0
LINE
  8
0
 62
     0
 10
327.707
 20
19.8341
 30
0.0
 11
327.707
 21
20.7546
 31
0.0
  0
LINE
  8
0
 62
     0
 10
327.707
 20
20.7546
 30
0.0
 11
324.557
 21
20.7546
 31
0.0
  0
LINE
  8
0
 62
     0
 10
324.557
 20
20.7546
 30
0.0
 11
324.557
 21
19.8341
 31
0.0
  0
LINE
  8
0
 62
     0
 10
324.557
 20
19.8341
 30
0.0
 11
322.833
 21
19.8341
 31
0.0
  0
LINE
  8
0
 62
     0
 10
322.833
 20
19.8341
 30
0.0
 11
322.833
 21
16.604
 31
0.0
  0
LINE
  8
0
 62
     0
 10
322.833
 20
16.604
 30
0.0
 11
321.157
 21
16.604
 31
0.0
  0
LINE
  8
0
 62
     0
 10
321.157
 20
16.604
 30
0.0
 11
321.157
 21
21.3045
 31
0.0
  0
LINE
  8
0
 62
     0
 10
321.157
 20
21.3045
 30
0.0
 11
307.308
 21
21.3045
 31
0.0
  0
LINE
  8
0
 62
     0
 10
128.713
 20
21.3045
 30
0.0
 11
128.713
 21
16.604
 31
0.0
  0
LINE
  8
0
 62
     0
 10
128.713
 20
16.604
 30
0.0
 11
88.9385
 21
16.604
 31
0.0
  0
LINE
  8
0
 62
     0
 10
88.9385
 20
16.604
 30
0.0
 11
88.9385
 21
19.8341
 31
0.0
  0
LINE
  8
0
 62
     0
 10
88.9385
 20
19.8341
 30
0.0
 11
87.2134
 21
19.8341
 31
0.0
  0
LINE
  8
0
 62
     0
 10
87.2134
 20
19.8341
 30
0.0
 11
87.2134
 21
20.7546
 31
0.0
  0
LINE
  8
0
 62
     0
 10
87.2134
 20
20.7546
 30
0.0
 11
84.0631
 21
20.7546
 31
0.0
  0
LINE
  8
0
 62
     0
 10
84.0631
 20
20.7546
 30
0.0
 11
84.0631
 21
19.8341
 31
0.0
  0
LINE
  8
0
 62
     0
 10
84.0631
 20
19.8341
 30
0.0
 11
82.339
 21
19.8341
 31
0.0
  0
LINE
  8
0
 62
     0
 10
82.339
 20
19.8341
 30
0.0
 11
82.339
 21
16.604
 31
0.0
  0
LINE
  8
0
 62
     0
 10
82.339
 20
16.604
 30
0.0
 11
81.5139
 21
16.604
 31
0.0
  0
LINE
  8
0
 62
     0
 10
81.5139
 20
16.604
 30
0.0
 11
81.5139
 21
13.954
 31
0.0
  0
LINE
  8
0
 62
     0
 10
81.5139
 20
13.954
 30
0.0
 11
82.339
 21
13.954
 31
0.0
  0
LINE
  8
0
 62
     0
 10
82.339
 20
13.954
 30
0.0
 11
82.339
 21
7.68533
 31
0.0
  0
LINE
  8
0
 62
     0
 10
82.339
 20
7.68533
 30
0.0
 11
84.0631
 21
7.68533
 31
0.0
  0
LINE
  8
0
 62
     0
 10
84.0631
 20
7.68533
 30
0.0
 11
84.0631
 21
6.70415
 31
0.0
  0
LINE
  8
0
 62
     0
 10
84.0631
 20
6.70415
 30
0.0
 11
87.2134
 21
6.70415
 31
0.0
  0
LINE
  8
0
 62
     0
 10
87.2134
 20
6.70415
 30
0.0
 11
87.2134
 21
7.68533
 31
0.0
  0
LINE
  8
0
 62
     0
 10
87.2134
 20
7.68533
 30
0.0
 11
88.9385
 21
7.68533
 31
0.0
  0
LINE
  8
0
 62
     0
 10
88.9385
 20
7.68533
 30
0.0
 11
88.9385
 21
12.1557
 31
0.0
  0
LINE
  8
0
 62
     0
 10
88.9385
 20
12.1557
 30
0.0
 11
128.713
 21
12.1557
 31
0.0
  0
LINE
  8
0
 62
     0
 10
128.713
 20
12.1557
 30
0.0
 11
128.713
 21
7.45518
 31
0.0
  0
LINE
  8
0
 62
     0
 10
128.713
 20
7.45518
 30
0.0
 11
142.563
 21
7.45518
 31
0.0
  0
LINE
  8
0
 62
     0
 10
142.563
 20
7.45518
 30
0.0
 11
142.563
 21
12.1557
 31
0.0
  0
LINE
  8
0
 62
     0
 10
142.563
 20
12.1557
 30
0.0
 11
182.338
 21
12.1557
 31
0.0
  0
LINE
  8
0
 62
     0
 10
182.338
 20
12.1557
 30
0.0
 11
182.338
 21
7.68533
 31
0.0
  0
LINE
  8
0
 62
     0
 10
182.338
 20
7.68533
 30
0.0
 11
184.063
 21
7.68533
 31
0.0
  0
LINE
  8
0
 62
     0
 10
184.063
 20
7.68533
 30
0.0
 11
184.063
 21
6.70415
 31
0.0
  0
LINE
  8
0
 62
     0
 10
184.063
 20
6.70415
 30
0.0
 11
187.214
 21
6.70415
 31
0.0
  0
LINE
  8
0
 62
     0
 10
187.214
 20
6.70415
 30
0.0
 11
187.214
 21
7.68533
 31
0.0
  0
LINE
  8
0
 62
     0
 10
187.214
 20
7.68533
 30
0.0
 11
188.939
 21
7.68533
 31
0.0
  0
LINE
  8
0
 62
     0
 10
188.939
 20
7.68533
 30
0.0
 11
188.939
 21
13.954
 31
0.0
  0
LINE
  8
0
 62
     0
 10
188.939
 20
13.954
 30
0.0
 11
189.764
 21
13.954
 31
0.0
  0
LINE
  8
0
 62
     0
 10
189.764
 20
13.954
 30
0.0
 11
189.764
 21
16.604
 31
0.0
  0
LINE
  8
0
 62
     0
 10
189.764
 20
16.604
 30
0.0
 11
188.939
 21
16.604
 31
0.0
  0
LINE
  8
0
 62
     0
 10
188.939
 20
16.604
 30
0.0
 11
188.939
 21
19.8341
 31
0.0
  0
LINE
  8
0
 62
     0
 10
188.939
 20
19.8341
 30
0.0
 11
187.214
 21
19.8341
 31
0.0
  0
LINE
  8
0
 62
     0
 10
187.214
 20
19.8341
 30
0.0
 11
187.214
 21
20.7546
 31
0.0
  0
LINE
  8
0
 62
     0
 10
187.214
 20
20.7546
 30
0.0
 11
184.063
 21
20.7546
 31
0.0
  0
LINE
  8
0
 62
     0
 10
184.063
 20
20.7546
 30
0.0
 11
184.063
 21
19.8341
 31
0.0
  0
LINE
  8
0
 62
     0
 10
184.063
 20
19.8341
 30
0.0
 11
182.338
 21
19.8341
 31
0.0
  0
LINE
  8
0
 62
     0
 10
182.338
 20
19.8341
 30
0.0
 11
182.338
 21
16.604
 31
0.0
  0
LINE
  8
0
 62
     0
 10
182.338
 20
16.604
 30
0.0
 11
142.563
 21
16.604
 31
0.0
  0
LINE
  8
0
 62
     0
 10
142.563
 20
16.604
 30
0.0
 11
142.563
 21
21.3045
 31
0.0
  0
LINE
  8
0
 62
     0
 10
142.563
 20
21.3045
 30
0.0
 11
128.713
 21
21.3045
 31
0.0
  0
LINE
  8
0
 62
     0
 10
335.883
 20
21.3045
 30
0.0
 11
349.732
 21
21.3045
 31
0.0
  0
LINE
  8
0
 62
     0
 10
349.732
 20
21.3045
 30
0.0
 11
349.732
 21
7.45518
 31
0.0
  0
LINE
  8
0
 62
     0
 10
349.732
 20
7.45518
 30
0.0
 11
335.883
 21
7.45518
 31
0.0
  0
LINE
  8
0
 62
     0
 10
335.883
 20
7.45518
 30
0.0
 11
335.883
 21
21.3045
 31
0.0
  0
LINE
  8
0
 62
     0
 10
271.588
 20
21.3045
 30
0.0
 11
285.438
 21
21.3045
 31
0.0
  0
LINE
  8
0
 62
     0
 10
285.438
 20
21.3045
 30
0.0
 11
285.438
 21
7.45518
 31
0.0
  0
LINE
  8
0
 62
     0
 10
285.438
 20
7.45518
 30
0.0
 11
271.588
 21
7.45518
 31
0.0
  0
LINE
  8
0
 62
     0
 10
271.588
 20
7.45518
 30
0.0
 11
271.588
 21
21.3045
 31
0.0
  0
LINE
  8
0
 62
     0
 10
247.777
 20
21.3045
 30
0.0
 11
261.626
 21
21.3045
 31
0.0
  0
LINE
  8
0
 62
     0
 10
261.626
 20
21.3045
 30
0.0
 11
261.626
 21
7.45518
 31
0.0
  0
LINE
  8
0
 62
     0
 10
261.626
 20
7.45518
 30
0.0
 11
247.777
 21
7.45518
 31
0.0
  0
LINE
  8
0
 62
     0
 10
247.777
 20
7.45518
 30
0.0
 11
247.777
 21
21.3045
 31
0.0
  0
LINE
  8
0
 62
     0
 10
223.963
 20
21.3045
 30
0.0
 11
237.813
 21
21.3045
 31
0.0
  0
LINE
  8
0
 62
     0
 10
237.813
 20
21.3045
 30
0.0
 11
237.813
 21
7.45518
 31
0.0
  0
LINE
  8
0
 62
     0
 10
237.813
 20
7.45518
 30
0.0
 11
223.963
 21
7.45518
 31
0.0
  0
LINE
  8
0
 62
     0
 10
223.963
 20
7.45518
 30
0.0
 11
223.963
 21
21.3045
 31
0.0
  0
LINE
  8
0
 62
     0
 10
200.152
 20
21.3045
 30
0.0
 11
214.001
 21
21.3045
 31
0.0
  0
LINE
  8
0
 62
     0
 10
214.001
 20
21.3045
 30
0.0
 11
214.001
 21
7.45518
 31
0.0
  0
LINE
  8
0
 62
     0
 10
214.001
 20
7.45518
 30
0.0
 11
200.152
 21
7.45518
 31
0.0
  0
LINE
  8
0
 62
     0
 10
200.152
 20
7.45518
 30
0.0
 11
200.152
 21
21.3045
 31
0.0
  0
LINE
  8
0
 62
     0
 10
57.2766
 20
21.3045
 30
0.0
 11
71.126
 21
21.3045
 31
0.0
  0
LINE
  8
0
 62
     0
 10
71.126
 20
21.3045
 30
0.0
 11
71.126
 21
7.45518
 31
0.0
  0
LINE
  8
0
 62
     0
 10
71.126
 20
7.45518
 30
0.0
 11
57.2766
 21
7.45518
 31
0.0
  0
LINE
  8
0
 62
     0
 10
57.2766
 20
7.45518
 30
0.0
 11
57.2766
 21
21.3045
 31
0.0
  0
LINE
  8
0
 62
     0
 10
33.4629
 20
21.3045
 30
0.0
 11
47.3135
 21
21.3045
 31
0.0
  0
LINE
  8
0
 62
     0
 10
47.3135
 20
21.3045
 30
0.0
 11
47.3135
 21
7.45518
 31
0.0
  0
LINE
  8
0
 62
     0
 10
47.3135
 20
7.45518
 30
0.0
 11
33.4629
 21
7.45518
 31
0.0
  0
LINE
  8
0
 62
     0
 10
33.4629
 20
7.45518
 30
0.0
 11
33.4629
 21
21.3045
 31
0.0
  0
LINE
  8
0
 62
     0
 10
9.65179
 20
21.3045
 30
0.0
 11
23.5011
 21
21.3045
 31
0.0
  0
LINE
  8
0
 62
     0
 10
23.5011
 20
21.3045
 30
0.0
 11
23.5011
 21
7.45518
 31
0.0
  0
LINE
  8
0
 62
     0
 10
23.5011
 20
7.45518
 30
0.0
 11
9.65179
 21
7.45518
 31
0.0
  0
LINE
  8
0
 62
     0
 10
9.65179
 20
7.45518
 30
0.0
 11
9.65179
 21
21.3045
 31
0.0
  0
LINE
  8
0
 62
     0
 10
361.431
 20
39.9302
 30
0.0
 11
361.431
 21
39.1047
 31
0.0
  0
LINE
  8
0
 62
     0
 10
361.431
 20
39.1047
 30
0.0
 11
355.163
 21
39.1047
 31
0.0
  0
LINE
  8
0
 62
     0
 10
355.163
 20
39.1047
 30
0.0
 11
355.163
 21
37.3793
 31
0.0
  0
LINE
  8
0
 62
     0
 10
355.163
 20
37.3793
 30
0.0
 11
354.182
 21
37.3793
 31
0.0
  0
LINE
  8
0
 62
     0
 10
354.182
 20
37.3793
 30
0.0
 11
354.182
 21
34.2291
 31
0.0
  0
LINE
  8
0
 62
     0
 10
354.182
 20
34.2291
 30
0.0
 11
355.163
 21
34.2291
 31
0.0
  0
LINE
  8
0
 62
     0
 10
355.163
 20
34.2291
 30
0.0
 11
355.163
 21
32.5052
 31
0.0
  0
LINE
  8
0
 62
     0
 10
355.163
 20
32.5052
 30
0.0
 11
359.632
 21
32.5052
 31
0.0
  0
LINE
  8
0
 62
     0
 10
359.632
 20
32.5052
 30
0.0
 11
359.632
 21
30.8295
 31
0.0
  0
LINE
  8
0
 62
     0
 10
359.632
 20
30.8295
 30
0.0
 11
354.933
 21
30.8295
 31
0.0
  0
LINE
  8
0
 62
     0
 10
354.933
 20
30.8295
 30
0.0
 11
354.933
 21
16.9802
 31
0.0
  0
LINE
  8
0
 62
     0
 10
354.933
 20
16.9802
 30
0.0
 11
359.632
 21
16.9802
 31
0.0
  0
LINE
  8
0
 62
     0
 10
359.632
 20
16.9802
 30
0.0
 11
359.632
 21
15.3045
 31
0.0
  0
LINE
  8
0
 62
     0
 10
359.632
 20
15.3045
 30
0.0
 11
355.163
 21
15.3045
 31
0.0
  0
LINE
  8
0
 62
     0
 10
355.163
 20
15.3045
 30
0.0
 11
355.163
 21
13.5792
 31
0.0
  0
LINE
  8
0
 62
     0
 10
355.163
 20
13.5792
 30
0.0
 11
354.182
 21
13.5792
 31
0.0
  0
LINE
  8
0
 62
     0
 10
354.182
 20
13.5792
 30
0.0
 11
354.182
 21
10.429
 31
0.0
  0
LINE
  8
0
 62
     0
 10
354.182
 20
10.429
 30
0.0
 11
355.163
 21
10.429
 31
0.0
  0
LINE
  8
0
 62
     0
 10
355.163
 20
10.429
 30
0.0
 11
355.163
 21
8.70507
 31
0.0
  0
LINE
  8
0
 62
     0
 10
355.163
 20
8.70507
 30
0.0
 11
361.431
 21
8.70507
 31
0.0
  0
LINE
  8
0
 62
     0
 10
361.431
 20
8.70507
 30
0.0
 11
361.431
 21
7.87961
 31
0.0
  0
LINE
  8
0
 62
     0
 10
361.431
 20
7.87961
 30
0.0
 11
364.081
 21
7.87961
 31
0.0
  0
LINE
  8
0
 62
     0
 10
364.081
 20
7.87961
 30
0.0
 11
364.081
 21
8.70507
 31
0.0
  0
LINE
  8
0
 62
     0
 10
364.081
 20
8.70507
 30
0.0
 11
367.312
 21
8.70507
 31
0.0
  0
LINE
  8
0
 62
     0
 10
367.312
 20
8.70507
 30
0.0
 11
367.312
 21
10.429
 31
0.0
  0
LINE
  8
0
 62
     0
 10
367.312
 20
10.429
 30
0.0
 11
368.233
 21
10.429
 31
0.0
  0
LINE
  8
0
 62
     0
 10
368.233
 20
10.429
 30
0.0
 11
368.233
 21
13.5792
 31
0.0
  0
LINE
  8
0
 62
     0
 10
368.233
 20
13.5792
 30
0.0
 11
367.312
 21
13.5792
 31
0.0
  0
LINE
  8
0
 62
     0
 10
367.312
 20
13.5792
 30
0.0
 11
367.312
 21
15.3045
 31
0.0
  0
LINE
  8
0
 62
     0
 10
367.312
 20
15.3045
 30
0.0
 11
364.081
 21
15.3045
 31
0.0
  0
LINE
  8
0
 62
     0
 10
364.081
 20
15.3045
 30
0.0
 11
364.081
 21
16.9802
 31
0.0
  0
LINE
  8
0
 62
     0
 10
364.081
 20
16.9802
 30
0.0
 11
368.783
 21
16.9802
 31
0.0
  0
LINE
  8
0
 62
     0
 10
368.783
 20
16.9802
 30
0.0
 11
368.783
 21
30.8295
 31
0.0
  0
LINE
  8
0
 62
     0
 10
368.783
 20
30.8295
 30
0.0
 11
364.081
 21
30.8295
 31
0.0
  0
LINE
  8
0
 62
     0
 10
364.081
 20
30.8295
 30
0.0
 11
364.081
 21
32.5052
 31
0.0
  0
LINE
  8
0
 62
     0
 10
364.081
 20
32.5052
 30
0.0
 11
367.312
 21
32.5052
 31
0.0
  0
LINE
  8
0
 62
     0
 10
367.312
 20
32.5052
 30
0.0
 11
367.312
 21
34.2291
 31
0.0
  0
LINE
  8
0
 62
     0
 10
367.312
 20
34.2291
 30
0.0
 11
368.233
 21
34.2291
 31
0.0
  0
LINE
  8
0
 62
     0
 10
368.233
 20
34.2291
 30
0.0
 11
368.233
 21
37.3793
 31
0.0
  0
LINE
  8
0
 62
     0
 10
368.233
 20
37.3793
 30
0.0
 11
367.312
 21
37.3793
 31
0.0
  0
LINE
  8
0
 62
     0
 10
367.312
 20
37.3793
 30
0.0
 11
367.312
 21
39.1047
 31
0.0
  0
LINE
  8
0
 62
     0
 10
367.312
 20
39.1047
 30
0.0
 11
364.081
 21
39.1047
 31
0.0
  0
LINE
  8
0
 62
     0
 10
364.081
 20
39.1047
 30
0.0
 11
364.081
 21
39.9302
 31
0.0
  0
LINE
  8
0
 62
     0
 10
364.081
 20
39.9302
 30
0.0
 11
361.431
 21
39.9302
 31
0.0
  0
LINE
  8
0
 62
     0
 10
257.302
 20
40.3546
 30
0.0
 11
257.302
 21
35.6538
 31
0.0
  0
LINE
  8
0
 62
     0
 10
257.302
 20
35.6538
 30
0.0
 11
255.626
 21
35.6538
 31
0.0
  0
LINE
  8
0
 62
     0
 10
255.626
 20
35.6538
 30
0.0
 11
255.626
 21
38.8842
 31
0.0
  0
LINE
  8
0
 62
     0
 10
255.626
 20
38.8842
 30
0.0
 11
253.901
 21
38.8842
 31
0.0
  0
LINE
  8
0
 62
     0
 10
253.901
 20
38.8842
 30
0.0
 11
253.901
 21
39.8046
 31
0.0
  0
LINE
  8
0
 62
     0
 10
253.901
 20
39.8046
 30
0.0
 11
250.752
 21
39.8046
 31
0.0
  0
LINE
  8
0
 62
     0
 10
250.752
 20
39.8046
 30
0.0
 11
250.752
 21
38.8842
 31
0.0
  0
LINE
  8
0
 62
     0
 10
250.752
 20
38.8842
 30
0.0
 11
249.027
 21
38.8842
 31
0.0
  0
LINE
  8
0
 62
     0
 10
249.027
 20
38.8842
 30
0.0
 11
249.027
 21
35.6538
 31
0.0
  0
LINE
  8
0
 62
     0
 10
249.027
 20
35.6538
 30
0.0
 11
248.201
 21
35.6538
 31
0.0
  0
LINE
  8
0
 62
     0
 10
248.201
 20
35.6538
 30
0.0
 11
248.201
 21
33.004
 31
0.0
  0
LINE
  8
0
 62
     0
 10
248.201
 20
33.004
 30
0.0
 11
249.027
 21
33.004
 31
0.0
  0
LINE
  8
0
 62
     0
 10
249.027
 20
33.004
 30
0.0
 11
249.027
 21
26.734
 31
0.0
  0
LINE
  8
0
 62
     0
 10
249.027
 20
26.734
 30
0.0
 11
250.752
 21
26.734
 31
0.0
  0
LINE
  8
0
 62
     0
 10
250.752
 20
26.734
 30
0.0
 11
250.752
 21
25.7542
 31
0.0
  0
LINE
  8
0
 62
     0
 10
250.752
 20
25.7542
 30
0.0
 11
253.901
 21
25.7542
 31
0.0
  0
LINE
  8
0
 62
     0
 10
253.901
 20
25.7542
 30
0.0
 11
253.901
 21
26.734
 31
0.0
  0
LINE
  8
0
 62
     0
 10
253.901
 20
26.734
 30
0.0
 11
255.626
 21
26.734
 31
0.0
  0
LINE
  8
0
 62
     0
 10
255.626
 20
26.734
 30
0.0
 11
255.626
 21
31.2043
 31
0.0
  0
LINE
  8
0
 62
     0
 10
255.626
 20
31.2043
 30
0.0
 11
257.302
 21
31.2043
 31
0.0
  0
LINE
  8
0
 62
     0
 10
257.302
 20
31.2043
 30
0.0
 11
257.302
 21
26.5052
 31
0.0
  0
LINE
  8
0
 62
     0
 10
257.302
 20
26.5052
 30
0.0
 11
271.151
 21
26.5052
 31
0.0
  0
LINE
  8
0
 62
     0
 10
271.151
 20
26.5052
 30
0.0
 11
271.151
 21
31.2043
 31
0.0
  0
LINE
  8
0
 62
     0
 10
271.151
 20
31.2043
 30
0.0
 11
272.827
 21
31.2043
 31
0.0
  0
LINE
  8
0
 62
     0
 10
272.827
 20
31.2043
 30
0.0
 11
272.827
 21
26.734
 31
0.0
  0
LINE
  8
0
 62
     0
 10
272.827
 20
26.734
 30
0.0
 11
274.552
 21
26.734
 31
0.0
  0
LINE
  8
0
 62
     0
 10
274.552
 20
26.734
 30
0.0
 11
274.552
 21
25.7542
 31
0.0
  0
LINE
  8
0
 62
     0
 10
274.552
 20
25.7542
 30
0.0
 11
277.701
 21
25.7542
 31
0.0
  0
LINE
  8
0
 62
     0
 10
277.701
 20
25.7542
 30
0.0
 11
277.701
 21
26.734
 31
0.0
  0
LINE
  8
0
 62
     0
 10
277.701
 20
26.734
 30
0.0
 11
279.426
 21
26.734
 31
0.0
  0
LINE
  8
0
 62
     0
 10
279.426
 20
26.734
 30
0.0
 11
279.426
 21
33.004
 31
0.0
  0
LINE
  8
0
 62
     0
 10
279.426
 20
33.004
 30
0.0
 11
280.252
 21
33.004
 31
0.0
  0
LINE
  8
0
 62
     0
 10
280.252
 20
33.004
 30
0.0
 11
280.252
 21
35.6538
 31
0.0
  0
LINE
  8
0
 62
     0
 10
280.252
 20
35.6538
 30
0.0
 11
279.426
 21
35.6538
 31
0.0
  0
LINE
  8
0
 62
     0
 10
279.426
 20
35.6538
 30
0.0
 11
279.426
 21
38.8842
 31
0.0
  0
LINE
  8
0
 62
     0
 10
279.426
 20
38.8842
 30
0.0
 11
277.701
 21
38.8842
 31
0.0
  0
LINE
  8
0
 62
     0
 10
277.701
 20
38.8842
 30
0.0
 11
277.701
 21
39.8046
 31
0.0
  0
LINE
  8
0
 62
     0
 10
277.701
 20
39.8046
 30
0.0
 11
274.552
 21
39.8046
 31
0.0
  0
LINE
  8
0
 62
     0
 10
274.552
 20
39.8046
 30
0.0
 11
274.552
 21
38.8842
 31
0.0
  0
LINE
  8
0
 62
     0
 10
274.552
 20
38.8842
 30
0.0
 11
272.827
 21
38.8842
 31
0.0
  0
LINE
  8
0
 62
     0
 10
272.827
 20
38.8842
 30
0.0
 11
272.827
 21
35.6538
 31
0.0
  0
LINE
  8
0
 62
     0
 10
272.827
 20
35.6538
 30
0.0
 11
271.151
 21
35.6538
 31
0.0
  0
LINE
  8
0
 62
     0
 10
271.151
 20
35.6538
 30
0.0
 11
271.151
 21
40.3546
 31
0.0
  0
LINE
  8
0
 62
     0
 10
271.151
 20
40.3546
 30
0.0
 11
257.302
 21
40.3546
 31
0.0
  0
LINE
  8
0
 62
     0
 10
19.1768
 20
40.3546
 30
0.0
 11
19.1768
 21
35.6538
 31
0.0
  0
LINE
  8
0
 62
     0
 10
19.1768
 20
35.6538
 30
0.0
 11
17.5011
 21
35.6538
 31
0.0
  0
LINE
  8
0
 62
     0
 10
17.5011
 20
35.6538
 30
0.0
 11
17.5011
 21
38.8842
 31
0.0
  0
LINE
  8
0
 62
     0
 10
17.5011
 20
38.8842
 30
0.0
 11
15.7772
 21
38.8842
 31
0.0
  0
LINE
  8
0
 62
     0
 10
15.7772
 20
38.8842
 30
0.0
 11
15.7772
 21
39.8046
 31
0.0
  0
LINE
  8
0
 62
     0
 10
15.7772
 20
39.8046
 30
0.0
 11
12.627
 21
39.8046
 31
0.0
  0
LINE
  8
0
 62
     0
 10
12.627
 20
39.8046
 30
0.0
 11
12.627
 21
38.8842
 31
0.0
  0
LINE
  8
0
 62
     0
 10
12.627
 20
38.8842
 30
0.0
 11
10.9016
 21
38.8842
 31
0.0
  0
LINE
  8
0
 62
     0
 10
10.9016
 20
38.8842
 30
0.0
 11
10.9016
 21
35.6538
 31
0.0
  0
LINE
  8
0
 62
     0
 10
10.9016
 20
35.6538
 30
0.0
 11
10.0762
 21
35.6538
 31
0.0
  0
LINE
  8
0
 62
     0
 10
10.0762
 20
35.6538
 30
0.0
 11
10.0762
 21
33.004
 31
0.0
  0
LINE
  8
0
 62
     0
 10
10.0762
 20
33.004
 30
0.0
 11
10.9016
 21
33.004
 31
0.0
  0
LINE
  8
0
 62
     0
 10
10.9016
 20
33.004
 30
0.0
 11
10.9016
 21
26.734
 31
0.0
  0
LINE
  8
0
 62
     0
 10
10.9016
 20
26.734
 30
0.0
 11
12.627
 21
26.734
 31
0.0
  0
LINE
  8
0
 62
     0
 10
12.627
 20
26.734
 30
0.0
 11
12.627
 21
25.7542
 31
0.0
  0
LINE
  8
0
 62
     0
 10
12.627
 20
25.7542
 30
0.0
 11
15.7772
 21
25.7542
 31
0.0
  0
LINE
  8
0
 62
     0
 10
15.7772
 20
25.7542
 30
0.0
 11
15.7772
 21
26.734
 31
0.0
  0
LINE
  8
0
 62
     0
 10
15.7772
 20
26.734
 30
0.0
 11
17.5011
 21
26.734
 31
0.0
  0
LINE
  8
0
 62
     0
 10
17.5011
 20
26.734
 30
0.0
 11
17.5011
 21
31.2043
 31
0.0
  0
LINE
  8
0
 62
     0
 10
17.5011
 20
31.2043
 30
0.0
 11
19.1768
 21
31.2043
 31
0.0
  0
LINE
  8
0
 62
     0
 10
19.1768
 20
31.2043
 30
0.0
 11
19.1768
 21
26.5052
 31
0.0
  0
LINE
  8
0
 62
     0
 10
19.1768
 20
26.5052
 30
0.0
 11
33.0261
 21
26.5052
 31
0.0
  0
LINE
  8
0
 62
     0
 10
33.0261
 20
26.5052
 30
0.0
 11
33.0261
 21
31.2043
 31
0.0
  0
LINE
  8
0
 62
     0
 10
33.0261
 20
31.2043
 30
0.0
 11
34.7018
 21
31.2043
 31
0.0
  0
LINE
  8
0
 62
     0
 10
34.7018
 20
31.2043
 30
0.0
 11
34.7018
 21
26.734
 31
0.0
  0
LINE
  8
0
 62
     0
 10
34.7018
 20
26.734
 30
0.0
 11
36.4271
 21
26.734
 31
0.0
  0
LINE
  8
0
 62
     0
 10
36.4271
 20
26.734
 30
0.0
 11
36.4271
 21
25.7542
 31
0.0
  0
LINE
  8
0
 62
     0
 10
36.4271
 20
25.7542
 30
0.0
 11
39.576
 21
25.7542
 31
0.0
  0
LINE
  8
0
 62
     0
 10
39.576
 20
25.7542
 30
0.0
 11
39.576
 21
26.734
 31
0.0
  0
LINE
  8
0
 62
     0
 10
39.576
 20
26.734
 30
0.0
 11
41.3011
 21
26.734
 31
0.0
  0
LINE
  8
0
 62
     0
 10
41.3011
 20
26.734
 30
0.0
 11
41.3011
 21
33.004
 31
0.0
  0
LINE
  8
0
 62
     0
 10
41.3011
 20
33.004
 30
0.0
 11
42.1266
 21
33.004
 31
0.0
  0
LINE
  8
0
 62
     0
 10
42.1266
 20
33.004
 30
0.0
 11
42.1266
 21
35.6538
 31
0.0
  0
LINE
  8
0
 62
     0
 10
42.1266
 20
35.6538
 30
0.0
 11
41.3011
 21
35.6538
 31
0.0
  0
LINE
  8
0
 62
     0
 10
41.3011
 20
35.6538
 30
0.0
 11
41.3011
 21
38.8842
 31
0.0
  0
LINE
  8
0
 62
     0
 10
41.3011
 20
38.8842
 30
0.0
 11
39.576
 21
38.8842
 31
0.0
  0
LINE
  8
0
 62
     0
 10
39.576
 20
38.8842
 30
0.0
 11
39.576
 21
39.8046
 31
0.0
  0
LINE
  8
0
 62
     0
 10
39.576
 20
39.8046
 30
0.0
 11
36.4271
 21
39.8046
 31
0.0
  0
LINE
  8
0
 62
     0
 10
36.4271
 20
39.8046
 30
0.0
 11
36.4271
 21
38.8842
 31
0.0
  0
LINE
  8
0
 62
     0
 10
36.4271
 20
38.8842
 30
0.0
 11
34.7018
 21
38.8842
 31
0.0
  0
LINE
  8
0
 62
     0
 10
34.7018
 20
38.8842
 30
0.0
 11
34.7018
 21
35.6538
 31
0.0
  0
LINE
  8
0
 62
     0
 10
34.7018
 20
35.6538
 30
0.0
 11
33.0261
 21
35.6538
 31
0.0
  0
LINE
  8
0
 62
     0
 10
33.0261
 20
35.6538
 30
0.0
 11
33.0261
 21
40.3546
 31
0.0
  0
LINE
  8
0
 62
     0
 10
33.0261
 20
40.3546
 30
0.0
 11
19.1768
 21
40.3546
 31
0.0
  0
LINE
  8
0
 62
     0
 10
335.883
 20
40.3546
 30
0.0
 11
349.732
 21
40.3546
 31
0.0
  0
LINE
  8
0
 62
     0
 10
349.732
 20
40.3546
 30
0.0
 11
349.732
 21
26.5052
 31
0.0
  0
LINE
  8
0
 62
     0
 10
349.732
 20
26.5052
 30
0.0
 11
335.883
 21
26.5052
 31
0.0
  0
LINE
  8
0
 62
     0
 10
335.883
 20
26.5052
 30
0.0
 11
335.883
 21
40.3546
 31
0.0
  0
LINE
  8
0
 62
     0
 10
316.833
 20
40.3546
 30
0.0
 11
330.682
 21
40.3546
 31
0.0
  0
LINE
  8
0
 62
     0
 10
330.682
 20
40.3546
 30
0.0
 11
330.682
 21
26.5052
 31
0.0
  0
LINE
  8
0
 62
     0
 10
330.682
 20
26.5052
 30
0.0
 11
316.833
 21
26.5052
 31
0.0
  0
LINE
  8
0
 62
     0
 10
316.833
 20
26.5052
 30
0.0
 11
316.833
 21
40.3546
 31
0.0
  0
LINE
  8
0
 62
     0
 10
297.783
 20
40.3546
 30
0.0
 11
311.632
 21
40.3546
 31
0.0
  0
LINE
  8
0
 62
     0
 10
311.632
 20
40.3546
 30
0.0
 11
311.632
 21
26.5052
 31
0.0
  0
LINE
  8
0
 62
     0
 10
311.632
 20
26.5052
 30
0.0
 11
297.783
 21
26.5052
 31
0.0
  0
LINE
  8
0
 62
     0
 10
297.783
 20
26.5052
 30
0.0
 11
297.783
 21
40.3546
 31
0.0
  0
LINE
  8
0
 62
     0
 10
221.583
 20
40.3546
 30
0.0
 11
235.432
 21
40.3546
 31
0.0
  0
LINE
  8
0
 62
     0
 10
235.432
 20
40.3546
 30
0.0
 11
235.432
 21
26.5052
 31
0.0
  0
LINE
  8
0
 62
     0
 10
235.432
 20
26.5052
 30
0.0
 11
221.583
 21
26.5052
 31
0.0
  0
LINE
  8
0
 62
     0
 10
221.583
 20
26.5052
 30
0.0
 11
221.583
 21
40.3546
 31
0.0
  0
LINE
  8
0
 62
     0
 10
202.533
 20
40.3546
 30
0.0
 11
216.382
 21
40.3546
 31
0.0
  0
LINE
  8
0
 62
     0
 10
216.382
 20
40.3546
 30
0.0
 11
216.382
 21
26.5052
 31
0.0
  0
LINE
  8
0
 62
     0
 10
216.382
 20
26.5052
 30
0.0
 11
202.533
 21
26.5052
 31
0.0
  0
LINE
  8
0
 62
     0
 10
202.533
 20
26.5052
 30
0.0
 11
202.533
 21
40.3546
 31
0.0
  0
LINE
  8
0
 62
     0
 10
183.483
 20
40.3546
 30
0.0
 11
197.332
 21
40.3546
 31
0.0
  0
LINE
  8
0
 62
     0
 10
197.332
 20
40.3546
 30
0.0
 11
197.332
 21
26.5052
 31
0.0
  0
LINE
  8
0
 62
     0
 10
197.332
 20
26.5052
 30
0.0
 11
183.483
 21
26.5052
 31
0.0
  0
LINE
  8
0
 62
     0
 10
183.483
 20
26.5052
 30
0.0
 11
183.483
 21
40.3546
 31
0.0
  0
LINE
  8
0
 62
     0
 10
164.433
 20
40.3546
 30
0.0
 11
178.282
 21
40.3546
 31
0.0
  0
LINE
  8
0
 62
     0
 10
178.282
 20
40.3546
 30
0.0
 11
178.282
 21
26.5052
 31
0.0
  0
LINE
  8
0
 62
     0
 10
178.282
 20
26.5052
 30
0.0
 11
164.433
 21
26.5052
 31
0.0
  0
LINE
  8
0
 62
     0
 10
164.433
 20
26.5052
 30
0.0
 11
164.433
 21
40.3546
 31
0.0
  0
LINE
  8
0
 62
     0
 10
145.383
 20
40.3546
 30
0.0
 11
159.232
 21
40.3546
 31
0.0
  0
LINE
  8
0
 62
     0
 10
159.232
 20
40.3546
 30
0.0
 11
159.232
 21
26.5052
 31
0.0
  0
LINE
  8
0
 62
     0
 10
159.232
 20
26.5052
 30
0.0
 11
145.383
 21
26.5052
 31
0.0
  0
LINE
  8
0
 62
     0
 10
145.383
 20
26.5052
 30
0.0
 11
145.383
 21
40.3546
 31
0.0
  0
LINE
  8
0
 62
     0
 10
126.333
 20
40.3546
 30
0.0
 11
140.182
 21
40.3546
 31
0.0
  0
LINE
  8
0
 62
     0
 10
140.182
 20
40.3546
 30
0.0
 11
140.182
 21
26.5052
 31
0.0
  0
LINE
  8
0
 62
     0
 10
140.182
 20
26.5052
 30
0.0
 11
126.333
 21
26.5052
 31
0.0
  0
LINE
  8
0
 62
     0
 10
126.333
 20
26.5052
 30
0.0
 11
126.333
 21
40.3546
 31
0.0
  0
LINE
  8
0
 62
     0
 10
107.283
 20
40.3546
 30
0.0
 11
121.132
 21
40.3546
 31
0.0
  0
LINE
  8
0
 62
     0
 10
121.132
 20
40.3546
 30
0.0
 11
121.132
 21
26.5052
 31
0.0
  0
LINE
  8
0
 62
     0
 10
121.132
 20
26.5052
 30
0.0
 11
107.283
 21
26.5052
 31
0.0
  0
LINE
  8
0
 62
     0
 10
107.283
 20
26.5052
 30
0.0
 11
107.283
 21
40.3546
 31
0.0
  0
LINE
  8
0
 62
     0
 10
88.2329
 20
40.3546
 30
0.0
 11
102.082
 21
40.3546
 31
0.0
  0
LINE
  8
0
 62
     0
 10
102.082
 20
40.3546
 30
0.0
 11
102.082
 21
26.5052
 31
0.0
  0
LINE
  8
0
 62
     0
 10
102.082
 20
26.5052
 30
0.0
 11
88.2329
 21
26.5052
 31
0.0
  0
LINE
  8
0
 62
     0
 10
88.2329
 20
26.5052
 30
0.0
 11
88.2329
 21
40.3546
 31
0.0
  0
LINE
  8
0
 62
     0
 10
69.1829
 20
40.3546
 30
0.0
 11
83.0322
 21
40.3546
 31
0.0
  0
LINE
  8
0
 62
     0
 10
83.0322
 20
40.3546
 30
0.0
 11
83.0322
 21
26.5052
 31
0.0
  0
LINE
  8
0
 62
     0
 10
83.0322
 20
26.5052
 30
0.0
 11
69.1829
 21
26.5052
 31
0.0
  0
LINE
  8
0
 62
     0
 10
69.1829
 20
26.5052
 30
0.0
 11
69.1829
 21
40.3546
 31
0.0
  0
LINE
  8
0
 62
     0
 10
50.1329
 20
40.3546
 30
0.0
 11
63.9822
 21
40.3546
 31
0.0
  0
LINE
  8
0
 62
     0
 10
63.9822
 20
40.3546
 30
0.0
 11
63.9822
 21
26.5052
 31
0.0
  0
LINE
  8
0
 62
     0
 10
63.9822
 20
26.5052
 30
0.0
 11
50.1329
 21
26.5052
 31
0.0
  0
LINE
  8
0
 62
     0
 10
50.1329
 20
26.5052
 30
0.0
 11
50.1329
 21
40.3546
 31
0.0
  0
LINE
  8
0
 62
     0
 10
262.063
 20
59.4046
 30
0.0
 11
262.063
 21
54.7038
 31
0.0
  0
LINE
  8
0
 62
     0
 10
262.063
 20
54.7038
 30
0.0
 11
260.388
 21
54.7038
 31
0.0
  0
LINE
  8
0
 62
     0
 10
260.388
 20
54.7038
 30
0.0
 11
260.388
 21
57.9342
 31
0.0
  0
LINE
  8
0
 62
     0
 10
260.388
 20
57.9342
 30
0.0
 11
258.663
 21
57.9342
 31
0.0
  0
LINE
  8
0
 62
     0
 10
258.663
 20
57.9342
 30
0.0
 11
258.663
 21
58.8546
 31
0.0
  0
LINE
  8
0
 62
     0
 10
258.663
 20
58.8546
 30
0.0
 11
255.513
 21
58.8546
 31
0.0
  0
LINE
  8
0
 62
     0
 10
255.513
 20
58.8546
 30
0.0
 11
255.513
 21
57.9342
 31
0.0
  0
LINE
  8
0
 62
     0
 10
255.513
 20
57.9342
 30
0.0
 11
253.788
 21
57.9342
 31
0.0
  0
LINE
  8
0
 62
     0
 10
253.788
 20
57.9342
 30
0.0
 11
253.788
 21
54.7038
 31
0.0
  0
LINE
  8
0
 62
     0
 10
253.788
 20
54.7038
 30
0.0
 11
252.964
 21
54.7038
 31
0.0
  0
LINE
  8
0
 62
     0
 10
252.964
 20
54.7038
 30
0.0
 11
252.964
 21
52.0541
 31
0.0
  0
LINE
  8
0
 62
     0
 10
252.964
 20
52.0541
 30
0.0
 11
253.788
 21
52.0541
 31
0.0
  0
LINE
  8
0
 62
     0
 10
253.788
 20
52.0541
 30
0.0
 11
253.788
 21
45.7839
 31
0.0
  0
LINE
  8
0
 62
     0
 10
253.788
 20
45.7839
 30
0.0
 11
255.513
 21
45.7839
 31
0.0
  0
LINE
  8
0
 62
     0
 10
255.513
 20
45.7839
 30
0.0
 11
255.513
 21
44.8042
 31
0.0
  0
LINE
  8
0
 62
     0
 10
255.513
 20
44.8042
 30
0.0
 11
258.663
 21
44.8042
 31
0.0
  0
LINE
  8
0
 62
     0
 10
258.663
 20
44.8042
 30
0.0
 11
258.663
 21
45.7839
 31
0.0
  0
LINE
  8
0
 62
     0
 10
258.663
 20
45.7839
 30
0.0
 11
260.388
 21
45.7839
 31
0.0
  0
LINE
  8
0
 62
     0
 10
260.388
 20
45.7839
 30
0.0
 11
260.388
 21
50.2543
 31
0.0
  0
LINE
  8
0
 62
     0
 10
260.388
 20
50.2543
 30
0.0
 11
262.063
 21
50.2543
 31
0.0
  0
LINE
  8
0
 62
     0
 10
262.063
 20
50.2543
 30
0.0
 11
262.063
 21
45.5553
 31
0.0
  0
LINE
  8
0
 62
     0
 10
262.063
 20
45.5553
 30
0.0
 11
275.913
 21
45.5553
 31
0.0
  0
LINE
  8
0
 62
     0
 10
275.913
 20
45.5553
 30
0.0
 11
275.913
 21
50.2543
 31
0.0
  0
LINE
  8
0
 62
     0
 10
275.913
 20
50.2543
 30
0.0
 11
277.588
 21
50.2543
 31
0.0
  0
LINE
  8
0
 62
     0
 10
277.588
 20
50.2543
 30
0.0
 11
277.588
 21
45.7839
 31
0.0
  0
LINE
  8
0
 62
     0
 10
277.588
 20
45.7839
 30
0.0
 11
279.313
 21
45.7839
 31
0.0
  0
LINE
  8
0
 62
     0
 10
279.313
 20
45.7839
 30
0.0
 11
279.313
 21
44.8042
 31
0.0
  0
LINE
  8
0
 62
     0
 10
279.313
 20
44.8042
 30
0.0
 11
282.464
 21
44.8042
 31
0.0
  0
LINE
  8
0
 62
     0
 10
282.464
 20
44.8042
 30
0.0
 11
282.464
 21
45.7839
 31
0.0
  0
LINE
  8
0
 62
     0
 10
282.464
 20
45.7839
 30
0.0
 11
284.189
 21
45.7839
 31
0.0
  0
LINE
  8
0
 62
     0
 10
284.189
 20
45.7839
 30
0.0
 11
284.189
 21
52.0541
 31
0.0
  0
LINE
  8
0
 62
     0
 10
284.189
 20
52.0541
 30
0.0
 11
285.014
 21
52.0541
 31
0.0
  0
LINE
  8
0
 62
     0
 10
285.014
 20
52.0541
 30
0.0
 11
285.014
 21
54.7038
 31
0.0
  0
LINE
  8
0
 62
     0
 10
285.014
 20
54.7038
 30
0.0
 11
284.189
 21
54.7038
 31
0.0
  0
LINE
  8
0
 62
     0
 10
284.189
 20
54.7038
 30
0.0
 11
284.189
 21
57.9342
 31
0.0
  0
LINE
  8
0
 62
     0
 10
284.189
 20
57.9342
 30
0.0
 11
282.464
 21
57.9342
 31
0.0
  0
LINE
  8
0
 62
     0
 10
282.464
 20
57.9342
 30
0.0
 11
282.464
 21
58.8546
 31
0.0
  0
LINE
  8
0
 62
     0
 10
282.464
 20
58.8546
 30
0.0
 11
279.313
 21
58.8546
 31
0.0
  0
LINE
  8
0
 62
     0
 10
279.313
 20
58.8546
 30
0.0
 11
279.313
 21
57.9342
 31
0.0
  0
LINE
  8
0
 62
     0
 10
279.313
 20
57.9342
 30
0.0
 11
277.588
 21
57.9342
 31
0.0
  0
LINE
  8
0
 62
     0
 10
277.588
 20
57.9342
 30
0.0
 11
277.588
 21
54.7038
 31
0.0
  0
LINE
  8
0
 62
     0
 10
277.588
 20
54.7038
 30
0.0
 11
275.913
 21
54.7038
 31
0.0
  0
LINE
  8
0
 62
     0
 10
275.913
 20
54.7038
 30
0.0
 11
275.913
 21
59.4046
 31
0.0
  0
LINE
  8
0
 62
     0
 10
275.913
 20
59.4046
 30
0.0
 11
262.063
 21
59.4046
 31
0.0
  0
LINE
  8
0
 62
     0
 10
354.933
 20
59.4046
 30
0.0
 11
368.783
 21
59.4046
 31
0.0
  0
LINE
  8
0
 62
     0
 10
368.783
 20
59.4046
 30
0.0
 11
368.783
 21
45.5553
 31
0.0
  0
LINE
  8
0
 62
     0
 10
368.783
 20
45.5553
 30
0.0
 11
354.933
 21
45.5553
 31
0.0
  0
LINE
  8
0
 62
     0
 10
354.933
 20
45.5553
 30
0.0
 11
354.933
 21
59.4046
 31
0.0
  0
LINE
  8
0
 62
     0
 10
335.883
 20
59.4046
 30
0.0
 11
349.732
 21
59.4046
 31
0.0
  0
LINE
  8
0
 62
     0
 10
349.732
 20
59.4046
 30
0.0
 11
349.732
 21
45.5553
 31
0.0
  0
LINE
  8
0
 62
     0
 10
349.732
 20
45.5553
 30
0.0
 11
335.883
 21
45.5553
 31
0.0
  0
LINE
  8
0
 62
     0
 10
335.883
 20
45.5553
 30
0.0
 11
335.883
 21
59.4046
 31
0.0
  0
LINE
  8
0
 62
     0
 10
316.833
 20
59.4046
 30
0.0
 11
330.682
 21
59.4046
 31
0.0
  0
LINE
  8
0
 62
     0
 10
330.682
 20
59.4046
 30
0.0
 11
330.682
 21
45.5553
 31
0.0
  0
LINE
  8
0
 62
     0
 10
330.682
 20
45.5553
 30
0.0
 11
316.833
 21
45.5553
 31
0.0
  0
LINE
  8
0
 62
     0
 10
316.833
 20
45.5553
 30
0.0
 11
316.833
 21
59.4046
 31
0.0
  0
LINE
  8
0
 62
     0
 10
297.783
 20
59.4046
 30
0.0
 11
311.632
 21
59.4046
 31
0.0
  0
LINE
  8
0
 62
     0
 10
311.632
 20
59.4046
 30
0.0
 11
311.632
 21
45.5553
 31
0.0
  0
LINE
  8
0
 62
     0
 10
311.632
 20
45.5553
 30
0.0
 11
297.783
 21
45.5553
 31
0.0
  0
LINE
  8
0
 62
     0
 10
297.783
 20
45.5553
 30
0.0
 11
297.783
 21
59.4046
 31
0.0
  0
LINE
  8
0
 62
     0
 10
231.108
 20
59.4046
 30
0.0
 11
244.957
 21
59.4046
 31
0.0
  0
LINE
  8
0
 62
     0
 10
244.957
 20
59.4046
 30
0.0
 11
244.957
 21
45.5553
 31
0.0
  0
LINE
  8
0
 62
     0
 10
244.957
 20
45.5553
 30
0.0
 11
231.108
 21
45.5553
 31
0.0
  0
LINE
  8
0
 62
     0
 10
231.108
 20
45.5553
 30
0.0
 11
231.108
 21
59.4046
 31
0.0
  0
LINE
  8
0
 62
     0
 10
212.058
 20
59.4046
 30
0.0
 11
225.907
 21
59.4046
 31
0.0
  0
LINE
  8
0
 62
     0
 10
225.907
 20
59.4046
 30
0.0
 11
225.907
 21
45.5553
 31
0.0
  0
LINE
  8
0
 62
     0
 10
225.907
 20
45.5553
 30
0.0
 11
212.058
 21
45.5553
 31
0.0
  0
LINE
  8
0
 62
     0
 10
212.058
 20
45.5553
 30
0.0
 11
212.058
 21
59.4046
 31
0.0
  0
LINE
  8
0
 62
     0
 10
193.008
 20
59.4046
 30
0.0
 11
206.857
 21
59.4046
 31
0.0
  0
LINE
  8
0
 62
     0
 10
206.857
 20
59.4046
 30
0.0
 11
206.857
 21
45.5553
 31
0.0
  0
LINE
  8
0
 62
     0
 10
206.857
 20
45.5553
 30
0.0
 11
193.008
 21
45.5553
 31
0.0
  0
LINE
  8
0
 62
     0
 10
193.008
 20
45.5553
 30
0.0
 11
193.008
 21
59.4046
 31
0.0
  0
LINE
  8
0
 62
     0
 10
173.958
 20
59.4046
 30
0.0
 11
187.807
 21
59.4046
 31
0.0
  0
LINE
  8
0
 62
     0
 10
187.807
 20
59.4046
 30
0.0
 11
187.807
 21
45.5553
 31
0.0
  0
LINE
  8
0
 62
     0
 10
187.807
 20
45.5553
 30
0.0
 11
173.958
 21
45.5553
 31
0.0
  0
LINE
  8
0
 62
     0
 10
173.958
 20
45.5553
 30
0.0
 11
173.958
 21
59.4046
 31
0.0
  0
LINE
  8
0
 62
     0
 10
154.908
 20
59.4046
 30
0.0
 11
168.757
 21
59.4046
 31
0.0
  0
LINE
  8
0
 62
     0
 10
168.757
 20
59.4046
 30
0.0
 11
168.757
 21
45.5553
 31
0.0
  0
LINE
  8
0
 62
     0
 10
168.757
 20
45.5553
 30
0.0
 11
154.908
 21
45.5553
 31
0.0
  0
LINE
  8
0
 62
     0
 10
154.908
 20
45.5553
 30
0.0
 11
154.908
 21
59.4046
 31
0.0
  0
LINE
  8
0
 62
     0
 10
135.858
 20
59.4046
 30
0.0
 11
149.707
 21
59.4046
 31
0.0
  0
LINE
  8
0
 62
     0
 10
149.707
 20
59.4046
 30
0.0
 11
149.707
 21
45.5553
 31
0.0
  0
LINE
  8
0
 62
     0
 10
149.707
 20
45.5553
 30
0.0
 11
135.858
 21
45.5553
 31
0.0
  0
LINE
  8
0
 62
     0
 10
135.858
 20
45.5553
 30
0.0
 11
135.858
 21
59.4046
 31
0.0
  0
LINE
  8
0
 62
     0
 10
116.808
 20
59.4046
 30
0.0
 11
130.657
 21
59.4046
 31
0.0
  0
LINE
  8
0
 62
     0
 10
130.657
 20
59.4046
 30
0.0
 11
130.657
 21
45.5553
 31
0.0
  0
LINE
  8
0
 62
     0
 10
130.657
 20
45.5553
 30
0.0
 11
116.808
 21
45.5553
 31
0.0
  0
LINE
  8
0
 62
     0
 10
116.808
 20
45.5553
 30
0.0
 11
116.808
 21
59.4046
 31
0.0
  0
LINE
  8
0
 62
     0
 10
97.7579
 20
59.4046
 30
0.0
 11
111.607
 21
59.4046
 31
0.0
  0
LINE
  8
0
 62
     0
 10
111.607
 20
59.4046
 30
0.0
 11
111.607
 21
45.5553
 31
0.0
  0
LINE
  8
0
 62
     0
 10
111.607
 20
45.5553
 30
0.0
 11
97.7579
 21
45.5553
 31
0.0
  0
LINE
  8
0
 62
     0
 10
97.7579
 20
45.5553
 30
0.0
 11
97.7579
 21
59.4046
 31
0.0
  0
LINE
  8
0
 62
     0
 10
78.7079
 20
59.4046
 30
0.0
 11
92.5572
 21
59.4046
 31
0.0
  0
LINE
  8
0
 62
     0
 10
92.5572
 20
59.4046
 30
0.0
 11
92.5572
 21
45.5553
 31
0.0
  0
LINE
  8
0
 62
     0
 10
92.5572
 20
45.5553
 30
0.0
 11
78.7079
 21
45.5553
 31
0.0
  0
LINE
  8
0
 62
     0
 10
78.7079
 20
45.5553
 30
0.0
 11
78.7079
 21
59.4046
 31
0.0
  0
LINE
  8
0
 62
     0
 10
59.6579
 20
59.4046
 30
0.0
 11
73.5072
 21
59.4046
 31
0.0
  0
LINE
  8
0
 62
     0
 10
73.5072
 20
59.4046
 30
0.0
 11
73.5072
 21
45.5553
 31
0.0
  0
LINE
  8
0
 62
     0
 10
73.5072
 20
45.5553
 30
0.0
 11
59.6579
 21
45.5553
 31
0.0
  0
LINE
  8
0
 62
     0
 10
59.6579
 20
45.5553
 30
0.0
 11
59.6579
 21
59.4046
 31
0.0
  0
LINE
  8
0
 62
     0
 10
40.6079
 20
59.4046
 30
0.0
 11
54.4572
 21
59.4046
 31
0.0
  0
LINE
  8
0
 62
     0
 10
54.4572
 20
59.4046
 30
0.0
 11
54.4572
 21
45.5553
 31
0.0
  0
LINE
  8
0
 62
     0
 10
54.4572
 20
45.5553
 30
0.0
 11
40.6079
 21
45.5553
 31
0.0
  0
LINE
  8
0
 62
     0
 10
40.6079
 20
45.5553
 30
0.0
 11
40.6079
 21
59.4046
 31
0.0
  0
LINE
  8
0
 62
     0
 10
14.4129
 20
59.4046
 30
0.0
 11
28.2636
 21
59.4046
 31
0.0
  0
LINE
  8
0
 62
     0
 10
28.2636
 20
59.4046
 30
0.0
 11
28.2636
 21
45.5553
 31
0.0
  0
LINE
  8
0
 62
     0
 10
28.2636
 20
45.5553
 30
0.0
 11
14.4129
 21
45.5553
 31
0.0
  0
LINE
  8
0
 62
     0
 10
14.4129
 20
45.5553
 30
0.0
 11
14.4129
 21
59.4046
 31
0.0
  0
LINE
  8
0
 62
     0
 10
354.933
 20
78.4546
 30
0.0
 11
368.783
 21
78.4546
 31
0.0
  0
LINE
  8
0
 62
     0
 10
368.783
 20
78.4546
 30
0.0
 11
368.783
 21
64.6053
 31
0.0
  0
LINE
  8
0
 62
     0
 10
368.783
 20
64.6053
 30
0.0
 11
354.933
 21
64.6053
 31
0.0
  0
LINE
  8
0
 62
     0
 10
354.933
 20
64.6053
 30
0.0
 11
354.933
 21
78.4546
 31
0.0
  0
LINE
  8
0
 62
     0
 10
335.883
 20
78.4546
 30
0.0
 11
349.732
 21
78.4546
 31
0.0
  0
LINE
  8
0
 62
     0
 10
349.732
 20
78.4546
 30
0.0
 11
349.732
 21
64.6053
 31
0.0
  0
LINE
  8
0
 62
     0
 10
349.732
 20
64.6053
 30
0.0
 11
335.883
 21
64.6053
 31
0.0
  0
LINE
  8
0
 62
     0
 10
335.883
 20
64.6053
 30
0.0
 11
335.883
 21
78.4546
 31
0.0
  0
LINE
  8
0
 62
     0
 10
316.833
 20
78.4546
 30
0.0
 11
330.682
 21
78.4546
 31
0.0
  0
LINE
  8
0
 62
     0
 10
330.682
 20
78.4546
 30
0.0
 11
330.682
 21
64.6053
 31
0.0
  0
LINE
  8
0
 62
     0
 10
330.682
 20
64.6053
 30
0.0
 11
316.833
 21
64.6053
 31
0.0
  0
LINE
  8
0
 62
     0
 10
316.833
 20
64.6053
 30
0.0
 11
316.833
 21
78.4546
 31
0.0
  0
LINE
  8
0
 62
     0
 10
297.783
 20
78.4546
 30
0.0
 11
311.632
 21
78.4546
 31
0.0
  0
LINE
  8
0
 62
     0
 10
311.632
 20
78.4546
 30
0.0
 11
311.632
 21
64.6053
 31
0.0
  0
LINE
  8
0
 62
     0
 10
311.632
 20
64.6053
 30
0.0
 11
297.783
 21
64.6053
 31
0.0
  0
LINE
  8
0
 62
     0
 10
297.783
 20
64.6053
 30
0.0
 11
297.783
 21
78.4546
 31
0.0
  0
LINE
  8
0
 62
     0
 10
269.208
 20
78.4546
 30
0.0
 11
283.057
 21
78.4546
 31
0.0
  0
LINE
  8
0
 62
     0
 10
283.057
 20
78.4546
 30
0.0
 11
283.057
 21
64.6053
 31
0.0
  0
LINE
  8
0
 62
     0
 10
283.057
 20
64.6053
 30
0.0
 11
269.208
 21
64.6053
 31
0.0
  0
LINE
  8
0
 62
     0
 10
269.208
 20
64.6053
 30
0.0
 11
269.208
 21
78.4546
 31
0.0
  0
LINE
  8
0
 62
     0
 10
245.395
 20
78.4546
 30
0.0
 11
259.245
 21
78.4546
 31
0.0
  0
LINE
  8
0
 62
     0
 10
259.245
 20
78.4546
 30
0.0
 11
259.245
 21
64.6053
 31
0.0
  0
LINE
  8
0
 62
     0
 10
259.245
 20
64.6053
 30
0.0
 11
245.395
 21
64.6053
 31
0.0
  0
LINE
  8
0
 62
     0
 10
245.395
 20
64.6053
 30
0.0
 11
245.395
 21
78.4546
 31
0.0
  0
LINE
  8
0
 62
     0
 10
226.345
 20
78.4546
 30
0.0
 11
240.195
 21
78.4546
 31
0.0
  0
LINE
  8
0
 62
     0
 10
240.195
 20
78.4546
 30
0.0
 11
240.195
 21
64.6053
 31
0.0
  0
LINE
  8
0
 62
     0
 10
240.195
 20
64.6053
 30
0.0
 11
226.345
 21
64.6053
 31
0.0
  0
LINE
  8
0
 62
     0
 10
226.345
 20
64.6053
 30
0.0
 11
226.345
 21
78.4546
 31
0.0
  0
LINE
  8
0
 62
     0
 10
207.295
 20
78.4546
 30
0.0
 11
221.145
 21
78.4546
 31
0.0
  0
LINE
  8
0
 62
     0
 10
221.145
 20
78.4546
 30
0.0
 11
221.145
 21
64.6053
 31
0.0
  0
LINE
  8
0
 62
     0
 10
221.145
 20
64.6053
 30
0.0
 11
207.295
 21
64.6053
 31
0.0
  0
LINE
  8
0
 62
     0
 10
207.295
 20
64.6053
 30
0.0
 11
207.295
 21
78.4546
 31
0.0
  0
LINE
  8
0
 62
     0
 10
188.245
 20
78.4546
 30
0.0
 11
202.095
 21
78.4546
 31
0.0
  0
LINE
  8
0
 62
     0
 10
202.095
 20
78.4546
 30
0.0
 11
202.095
 21
64.6053
 31
0.0
  0
LINE
  8
0
 62
     0
 10
202.095
 20
64.6053
 30
0.0
 11
188.245
 21
64.6053
 31
0.0
  0
LINE
  8
0
 62
     0
 10
188.245
 20
64.6053
 30
0.0
 11
188.245
 21
78.4546
 31
0.0
  0
LINE
  8
0
 62
     0
 10
169.195
 20
78.4546
 30
0.0
 11
183.045
 21
78.4546
 31
0.0
  0
LINE
  8
0
 62
     0
 10
183.045
 20
78.4546
 30
0.0
 11
183.045
 21
64.6053
 31
0.0
  0
LINE
  8
0
 62
     0
 10
183.045
 20
64.6053
 30
0.0
 11
169.195
 21
64.6053
 31
0.0
  0
LINE
  8
0
 62
     0
 10
169.195
 20
64.6053
 30
0.0
 11
169.195
 21
78.4546
 31
0.0
  0
LINE
  8
0
 62
     0
 10
150.144
 20
78.4546
 30
0.0
 11
163.995
 21
78.4546
 31
0.0
  0
LINE
  8
0
 62
     0
 10
163.995
 20
78.4546
 30
0.0
 11
163.995
 21
64.6053
 31
0.0
  0
LINE
  8
0
 62
     0
 10
163.995
 20
64.6053
 30
0.0
 11
150.144
 21
64.6053
 31
0.0
  0
LINE
  8
0
 62
     0
 10
150.144
 20
64.6053
 30
0.0
 11
150.144
 21
78.4546
 31
0.0
  0
LINE
  8
0
 62
     0
 10
131.094
 20
78.4546
 30
0.0
 11
144.945
 21
78.4546
 31
0.0
  0
LINE
  8
0
 62
     0
 10
144.945
 20
78.4546
 30
0.0
 11
144.945
 21
64.6053
 31
0.0
  0
LINE
  8
0
 62
     0
 10
144.945
 20
64.6053
 30
0.0
 11
131.094
 21
64.6053
 31
0.0
  0
LINE
  8
0
 62
     0
 10
131.094
 20
64.6053
 30
0.0
 11
131.094
 21
78.4546
 31
0.0
  0
LINE
  8
0
 62
     0
 10
112.044
 20
78.4546
 30
0.0
 11
125.895
 21
78.4546
 31
0.0
  0
LINE
  8
0
 62
     0
 10
125.895
 20
78.4546
 30
0.0
 11
125.895
 21
64.6053
 31
0.0
  0
LINE
  8
0
 62
     0
 10
125.895
 20
64.6053
 30
0.0
 11
112.044
 21
64.6053
 31
0.0
  0
LINE
  8
0
 62
     0
 10
112.044
 20
64.6053
 30
0.0
 11
112.044
 21
78.4546
 31
0.0
  0
LINE
  8
0
 62
     0
 10
92.994
 20
78.4546
 30
0.0
 11
106.845
 21
78.4546
 31
0.0
  0
LINE
  8
0
 62
     0
 10
106.845
 20
78.4546
 30
0.0
 11
106.845
 21
64.6053
 31
0.0
  0
LINE
  8
0
 62
     0
 10
106.845
 20
64.6053
 30
0.0
 11
92.994
 21
64.6053
 31
0.0
  0
LINE
  8
0
 62
     0
 10
92.994
 20
64.6053
 30
0.0
 11
92.994
 21
78.4546
 31
0.0
  0
LINE
  8
0
 62
     0
 10
73.9454
 20
78.4546
 30
0.0
 11
87.7947
 21
78.4546
 31
0.0
  0
LINE
  8
0
 62
     0
 10
87.7947
 20
78.4546
 30
0.0
 11
87.7947
 21
64.6053
 31
0.0
  0
LINE
  8
0
 62
     0
 10
87.7947
 20
64.6053
 30
0.0
 11
73.9454
 21
64.6053
 31
0.0
  0
LINE
  8
0
 62
     0
 10
73.9454
 20
64.6053
 30
0.0
 11
73.9454
 21
78.4546
 31
0.0
  0
LINE
  8
0
 62
     0
 10
54.8954
 20
78.4546
 30
0.0
 11
68.7447
 21
78.4546
 31
0.0
  0
LINE
  8
0
 62
     0
 10
68.7447
 20
78.4546
 30
0.0
 11
68.7447
 21
64.6053
 31
0.0
  0
LINE
  8
0
 62
     0
 10
68.7447
 20
64.6053
 30
0.0
 11
54.8954
 21
64.6053
 31
0.0
  0
LINE
  8
0
 62
     0
 10
54.8954
 20
64.6053
 30
0.0
 11
54.8954
 21
78.4546
 31
0.0
  0
LINE
  8
0
 62
     0
 10
35.8454
 20
78.4546
 30
0.0
 11
49.6947
 21
78.4546
 31
0.0
  0
LINE
  8
0
 62
     0
 10
49.6947
 20
78.4546
 30
0.0
 11
49.6947
 21
64.6053
 31
0.0
  0
LINE
  8
0
 62
     0
 10
49.6947
 20
64.6053
 30
0.0
 11
35.8454
 21
64.6053
 31
0.0
  0
LINE
  8
0
 62
     0
 10
35.8454
 20
64.6053
 30
0.0
 11
35.8454
 21
78.4546
 31
0.0
  0
LINE
  8
0
 62
     0
 10
12.033
 20
78.4546
 30
0.0
 11
25.8823
 21
78.4546
 31
0.0
  0
LINE
  8
0
 62
     0
 10
25.8823
 20
78.4546
 30
0.0
 11
25.8823
 21
64.6053
 31
0.0
  0
LINE
  8
0
 62
     0
 10
25.8823
 20
64.6053
 30
0.0
 11
12.033
 21
64.6053
 31
0.0
  0
LINE
  8
0
 62
     0
 10
12.033
 20
64.6053
 30
0.0
 11
12.033
 21
78.4546
 31
0.0
  0
LINE
  8
0
 62
     0
 10
264.445
 20
97.5046
 30
0.0
 11
264.445
 21
92.8038
 31
0.0
  0
LINE
  8
0
 62
     0
 10
264.445
 20
92.8038
 30
0.0
 11
262.77
 21
92.8038
 31
0.0
  0
LINE
  8
0
 62
     0
 10
262.77
 20
92.8038
 30
0.0
 11
262.77
 21
96.0342
 31
0.0
  0
LINE
  8
0
 62
     0
 10
262.77
 20
96.0342
 30
0.0
 11
261.046
 21
96.0342
 31
0.0
  0
LINE
  8
0
 62
     0
 10
261.046
 20
96.0342
 30
0.0
 11
261.046
 21
96.9546
 31
0.0
  0
LINE
  8
0
 62
     0
 10
261.046
 20
96.9546
 30
0.0
 11
257.896
 21
96.9546
 31
0.0
  0
LINE
  8
0
 62
     0
 10
257.896
 20
96.9546
 30
0.0
 11
257.896
 21
96.0342
 31
0.0
  0
LINE
  8
0
 62
     0
 10
257.896
 20
96.0342
 30
0.0
 11
256.17
 21
96.0342
 31
0.0
  0
LINE
  8
0
 62
     0
 10
256.17
 20
96.0342
 30
0.0
 11
256.17
 21
92.8038
 31
0.0
  0
LINE
  8
0
 62
     0
 10
256.17
 20
92.8038
 30
0.0
 11
255.345
 21
92.8038
 31
0.0
  0
LINE
  8
0
 62
     0
 10
255.345
 20
92.8038
 30
0.0
 11
255.345
 21
90.1541
 31
0.0
  0
LINE
  8
0
 62
     0
 10
255.345
 20
90.1541
 30
0.0
 11
256.17
 21
90.1541
 31
0.0
  0
LINE
  8
0
 62
     0
 10
256.17
 20
90.1541
 30
0.0
 11
256.17
 21
83.8839
 31
0.0
  0
LINE
  8
0
 62
     0
 10
256.17
 20
83.8839
 30
0.0
 11
257.896
 21
83.8839
 31
0.0
  0
LINE
  8
0
 62
     0
 10
257.896
 20
83.8839
 30
0.0
 11
257.896
 21
82.9042
 31
0.0
  0
LINE
  8
0
 62
     0
 10
257.896
 20
82.9042
 30
0.0
 11
261.046
 21
82.9042
 31
0.0
  0
LINE
  8
0
 62
     0
 10
261.046
 20
82.9042
 30
0.0
 11
261.046
 21
83.8839
 31
0.0
  0
LINE
  8
0
 62
     0
 10
261.046
 20
83.8839
 30
0.0
 11
262.77
 21
83.8839
 31
0.0
  0
LINE
  8
0
 62
     0
 10
262.77
 20
83.8839
 30
0.0
 11
262.77
 21
88.3543
 31
0.0
  0
LINE
  8
0
 62
     0
 10
262.77
 20
88.3543
 30
0.0
 11
264.445
 21
88.3543
 31
0.0
  0
LINE
  8
0
 62
     0
 10
264.445
 20
88.3543
 30
0.0
 11
264.445
 21
83.6553
 31
0.0
  0
LINE
  8
0
 62
     0
 10
264.445
 20
83.6553
 30
0.0
 11
278.295
 21
83.6553
 31
0.0
  0
LINE
  8
0
 62
     0
 10
278.295
 20
83.6553
 30
0.0
 11
278.295
 21
88.3543
 31
0.0
  0
LINE
  8
0
 62
     0
 10
278.295
 20
88.3543
 30
0.0
 11
279.97
 21
88.3543
 31
0.0
  0
LINE
  8
0
 62
     0
 10
279.97
 20
88.3543
 30
0.0
 11
279.97
 21
83.8839
 31
0.0
  0
LINE
  8
0
 62
     0
 10
279.97
 20
83.8839
 30
0.0
 11
281.696
 21
83.8839
 31
0.0
  0
LINE
  8
0
 62
     0
 10
281.696
 20
83.8839
 30
0.0
 11
281.696
 21
82.9042
 31
0.0
  0
LINE
  8
0
 62
     0
 10
281.696
 20
82.9042
 30
0.0
 11
284.846
 21
82.9042
 31
0.0
  0
LINE
  8
0
 62
     0
 10
284.846
 20
82.9042
 30
0.0
 11
284.846
 21
83.8839
 31
0.0
  0
LINE
  8
0
 62
     0
 10
284.846
 20
83.8839
 30
0.0
 11
286.57
 21
83.8839
 31
0.0
  0
LINE
  8
0
 62
     0
 10
286.57
 20
83.8839
 30
0.0
 11
286.57
 21
90.1541
 31
0.0
  0
LINE
  8
0
 62
     0
 10
286.57
 20
90.1541
 30
0.0
 11
287.395
 21
90.1541
 31
0.0
  0
LINE
  8
0
 62
     0
 10
287.395
 20
90.1541
 30
0.0
 11
287.395
 21
92.8038
 31
0.0
  0
LINE
  8
0
 62
     0
 10
287.395
 20
92.8038
 30
0.0
 11
286.57
 21
92.8038
 31
0.0
  0
LINE
  8
0
 62
     0
 10
286.57
 20
92.8038
 30
0.0
 11
286.57
 21
96.0342
 31
0.0
  0
LINE
  8
0
 62
     0
 10
286.57
 20
96.0342
 30
0.0
 11
284.846
 21
96.0342
 31
0.0
  0
LINE
  8
0
 62
     0
 10
284.846
 20
96.0342
 30
0.0
 11
284.846
 21
96.9546
 31
0.0
  0
LINE
  8
0
 62
     0
 10
284.846
 20
96.9546
 30
0.0
 11
281.696
 21
96.9546
 31
0.0
  0
LINE
  8
0
 62
     0
 10
281.696
 20
96.9546
 30
0.0
 11
281.696
 21
96.0342
 31
0.0
  0
LINE
  8
0
 62
     0
 10
281.696
 20
96.0342
 30
0.0
 11
279.97
 21
96.0342
 31
0.0
  0
LINE
  8
0
 62
     0
 10
279.97
 20
96.0342
 30
0.0
 11
279.97
 21
92.8038
 31
0.0
  0
LINE
  8
0
 62
     0
 10
279.97
 20
92.8038
 30
0.0
 11
278.295
 21
92.8038
 31
0.0
  0
LINE
  8
0
 62
     0
 10
278.295
 20
92.8038
 30
0.0
 11
278.295
 21
97.5046
 31
0.0
  0
LINE
  8
0
 62
     0
 10
278.295
 20
97.5046
 30
0.0
 11
264.445
 21
97.5046
 31
0.0
  0
LINE
  8
0
 62
     0
 10
354.933
 20
97.5046
 30
0.0
 11
368.783
 21
97.5046
 31
0.0
  0
LINE
  8
0
 62
     0
 10
368.783
 20
97.5046
 30
0.0
 11
368.783
 21
83.6553
 31
0.0
  0
LINE
  8
0
 62
     0
 10
368.783
 20
83.6553
 30
0.0
 11
354.933
 21
83.6553
 31
0.0
  0
LINE
  8
0
 62
     0
 10
354.933
 20
83.6553
 30
0.0
 11
354.933
 21
97.5046
 31
0.0
  0
LINE
  8
0
 62
     0
 10
335.883
 20
97.5046
 30
0.0
 11
349.732
 21
97.5046
 31
0.0
  0
LINE
  8
0
 62
     0
 10
349.732
 20
97.5046
 30
0.0
 11
349.732
 21
83.6553
 31
0.0
  0
LINE
  8
0
 62
     0
 10
349.732
 20
83.6553
 30
0.0
 11
335.883
 21
83.6553
 31
0.0
  0
LINE
  8
0
 62
     0
 10
335.883
 20
83.6553
 30
0.0
 11
335.883
 21
97.5046
 31
0.0
  0
LINE
  8
0
 62
     0
 10
316.833
 20
97.5046
 30
0.0
 11
330.682
 21
97.5046
 31
0.0
  0
LINE
  8
0
 62
     0
 10
330.682
 20
97.5046
 30
0.0
 11
330.682
 21
83.6553
 31
0.0
  0
LINE
  8
0
 62
     0
 10
330.682
 20
83.6553
 30
0.0
 11
316.833
 21
83.6553
 31
0.0
  0
LINE
  8
0
 62
     0
 10
316.833
 20
83.6553
 30
0.0
 11
316.833
 21
97.5046
 31
0.0
  0
LINE
  8
0
 62
     0
 10
297.783
 20
97.5046
 30
0.0
 11
311.632
 21
97.5046
 31
0.0
  0
LINE
  8
0
 62
     0
 10
311.632
 20
97.5046
 30
0.0
 11
311.632
 21
83.6553
 31
0.0
  0
LINE
  8
0
 62
     0
 10
311.632
 20
83.6553
 30
0.0
 11
297.783
 21
83.6553
 31
0.0
  0
LINE
  8
0
 62
     0
 10
297.783
 20
83.6553
 30
0.0
 11
297.783
 21
97.5046
 31
0.0
  0
LINE
  8
0
 62
     0
 10
235.87
 20
97.5046
 30
0.0
 11
249.72
 21
97.5046
 31
0.0
  0
LINE
  8
0
 62
     0
 10
249.72
 20
97.5046
 30
0.0
 11
249.72
 21
83.6553
 31
0.0
  0
LINE
  8
0
 62
     0
 10
249.72
 20
83.6553
 30
0.0
 11
235.87
 21
83.6553
 31
0.0
  0
LINE
  8
0
 62
     0
 10
235.87
 20
83.6553
 30
0.0
 11
235.87
 21
97.5046
 31
0.0
  0
LINE
  8
0
 62
     0
 10
216.82
 20
97.5046
 30
0.0
 11
230.67
 21
97.5046
 31
0.0
  0
LINE
  8
0
 62
     0
 10
230.67
 20
97.5046
 30
0.0
 11
230.67
 21
83.6553
 31
0.0
  0
LINE
  8
0
 62
     0
 10
230.67
 20
83.6553
 30
0.0
 11
216.82
 21
83.6553
 31
0.0
  0
LINE
  8
0
 62
     0
 10
216.82
 20
83.6553
 30
0.0
 11
216.82
 21
97.5046
 31
0.0
  0
LINE
  8
0
 62
     0
 10
197.77
 20
97.5046
 30
0.0
 11
211.62
 21
97.5046
 31
0.0
  0
LINE
  8
0
 62
     0
 10
211.62
 20
97.5046
 30
0.0
 11
211.62
 21
83.6553
 31
0.0
  0
LINE
  8
0
 62
     0
 10
211.62
 20
83.6553
 30
0.0
 11
197.77
 21
83.6553
 31
0.0
  0
LINE
  8
0
 62
     0
 10
197.77
 20
83.6553
 30
0.0
 11
197.77
 21
97.5046
 31
0.0
  0
LINE
  8
0
 62
     0
 10
178.72
 20
97.5046
 30
0.0
 11
192.57
 21
97.5046
 31
0.0
  0
LINE
  8
0
 62
     0
 10
192.57
 20
97.5046
 30
0.0
 11
192.57
 21
83.6553
 31
0.0
  0
LINE
  8
0
 62
     0
 10
192.57
 20
83.6553
 30
0.0
 11
178.72
 21
83.6553
 31
0.0
  0
LINE
  8
0
 62
     0
 10
178.72
 20
83.6553
 30
0.0
 11
178.72
 21
97.5046
 31
0.0
  0
LINE
  8
0
 62
     0
 10
159.67
 20
97.5046
 30
0.0
 11
173.52
 21
97.5046
 31
0.0
  0
LINE
  8
0
 62
     0
 10
173.52
 20
97.5046
 30
0.0
 11
173.52
 21
83.6553
 31
0.0
  0
LINE
  8
0
 62
     0
 10
173.52
 20
83.6553
 30
0.0
 11
159.67
 21
83.6553
 31
0.0
  0
LINE
  8
0
 62
     0
 10
159.67
 20
83.6553
 30
0.0
 11
159.67
 21
97.5046
 31
0.0
  0
LINE
  8
0
 62
     0
 10
140.62
 20
97.5046
 30
0.0
 11
154.47
 21
97.5046
 31
0.0
  0
LINE
  8
0
 62
     0
 10
154.47
 20
97.5046
 30
0.0
 11
154.47
 21
83.6553
 31
0.0
  0
LINE
  8
0
 62
     0
 10
154.47
 20
83.6553
 30
0.0
 11
140.62
 21
83.6553
 31
0.0
  0
LINE
  8
0
 62
     0
 10
140.62
 20
83.6553
 30
0.0
 11
140.62
 21
97.5046
 31
0.0
  0
LINE
  8
0
 62
     0
 10
121.57
 20
97.5046
 30
0.0
 11
135.42
 21
97.5046
 31
0.0
  0
LINE
  8
0
 62
     0
 10
135.42
 20
97.5046
 30
0.0
 11
135.42
 21
83.6553
 31
0.0
  0
LINE
  8
0
 62
     0
 10
135.42
 20
83.6553
 30
0.0
 11
121.57
 21
83.6553
 31
0.0
  0
LINE
  8
0
 62
     0
 10
121.57
 20
83.6553
 30
0.0
 11
121.57
 21
97.5046
 31
0.0
  0
LINE
  8
0
 62
     0
 10
102.52
 20
97.5046
 30
0.0
 11
116.37
 21
97.5046
 31
0.0
  0
LINE
  8
0
 62
     0
 10
116.37
 20
97.5046
 30
0.0
 11
116.37
 21
83.6553
 31
0.0
  0
LINE
  8
0
 62
     0
 10
116.37
 20
83.6553
 30
0.0
 11
102.52
 21
83.6553
 31
0.0
  0
LINE
  8
0
 62
     0
 10
102.52
 20
83.6553
 30
0.0
 11
102.52
 21
97.5046
 31
0.0
  0
LINE
  8
0
 62
     0
 10
83.4704
 20
97.5046
 30
0.0
 11
97.3197
 21
97.5046
 31
0.0
  0
LINE
  8
0
 62
     0
 10
97.3197
 20
97.5046
 30
0.0
 11
97.3197
 21
83.6553
 31
0.0
  0
LINE
  8
0
 62
     0
 10
97.3197
 20
83.6553
 30
0.0
 11
83.4704
 21
83.6553
 31
0.0
  0
LINE
  8
0
 62
     0
 10
83.4704
 20
83.6553
 30
0.0
 11
83.4704
 21
97.5046
 31
0.0
  0
LINE
  8
0
 62
     0
 10
64.4204
 20
97.5046
 30
0.0
 11
78.2697
 21
97.5046
 31
0.0
  0
LINE
  8
0
 62
     0
 10
78.2697
 20
97.5046
 30
0.0
 11
78.2697
 21
83.6553
 31
0.0
  0
LINE
  8
0
 62
     0
 10
78.2697
 20
83.6553
 30
0.0
 11
64.4204
 21
83.6553
 31
0.0
  0
LINE
  8
0
 62
     0
 10
64.4204
 20
83.6553
 30
0.0
 11
64.4204
 21
97.5046
 31
0.0
  0
LINE
  8
0
 62
     0
 10
45.3704
 20
97.5046
 30
0.0
 11
59.2197
 21
97.5046
 31
0.0
  0
LINE
  8
0
 62
     0
 10
59.2197
 20
97.5046
 30
0.0
 11
59.2197
 21
83.6553
 31
0.0
  0
LINE
  8
0
 62
     0
 10
59.2197
 20
83.6553
 30
0.0
 11
45.3704
 21
83.6553
 31
0.0
  0
LINE
  8
0
 62
     0
 10
45.3704
 20
83.6553
 30
0.0
 11
45.3704
 21
97.5046
 31
0.0
  0
LINE
  8
0
 62
     0
 10
26.3205
 20
97.5046
 30
0.0
 11
40.1697
 21
97.5046
 31
0.0
  0
LINE
  8
0
 62
     0
 10
40.1697
 20
97.5046
 30
0.0
 11
40.1697
 21
83.6553
 31
0.0
  0
LINE
  8
0
 62
     0
 10
40.1697
 20
83.6553
 30
0.0
 11
26.3205
 21
83.6553
 31
0.0
  0
LINE
  8
0
 62
     0
 10
26.3205
 20
83.6553
 30
0.0
 11
26.3205
 21
97.5046
 31
0.0
  0
LINE
  8
0
 62
     0
 10
7.27054
 20
97.5046
 30
0.0
 11
21.1198
 21
97.5046
 31
0.0
  0
LINE
  8
0
 62
     0
 10
21.1198
 20
97.5046
 30
0.0
 11
21.1198
 21
83.6553
 31
0.0
  0
LINE
  8
0
 62
     0
 10
21.1198
 20
83.6553
 30
0.0
 11
7.27054
 21
83.6553
 31
0.0
  0
LINE
  8
0
 62
     0
 10
7.27054
 20
83.6553
 30
0.0
 11
7.27054
 21
97.5046
 31
0.0
  0
LINE
  8
0
 62
     0
 10
2.10289
 20
103.329
 30
0.0
 11
1.81763
 21
103.185
 31
0.0
  0
LINE
  8
0
 62
     0
 10
1.81763
 20
103.185
 30
0.0
 11
1.59026
 21
102.957
 31
0.0
  0
LINE
  8
0
 62
     0
 10
1.59026
 20
102.957
 30
0.0
 11
1.44556
 21
102.672
 31
0.0
  0
LINE
  8
0
 62
     0
 10
1.44556
 20
102.672
 30
0.0
 11
1.39595
 21
102.355
 31
0.0
  0
LINE
  8
0
 62
     0
 10
1.39595
 20
102.355
 30
0.0
 11
1.44556
 21
102.038
 31
0.0
  0
LINE
  8
0
 62
     0
 10
1.44556
 20
102.038
 30
0.0
 11
1.59026
 21
101.753
 31
0.0
  0
LINE
  8
0
 62
     0
 10
1.59026
 20
101.753
 30
0.0
 11
1.81763
 21
101.526
 31
0.0
  0
LINE
  8
0
 62
     0
 10
1.81763
 20
101.526
 30
0.0
 11
2.10289
 21
101.381
 31
0.0
  0
LINE
  8
0
 62
     0
 10
2.10289
 20
101.381
 30
0.0
 11
2.41984
 21
101.33
 31
0.0
  0
LINE
  8
0
 62
     0
 10
2.41984
 20
101.33
 30
0.0
 11
2.73678
 21
101.381
 31
0.0
  0
LINE
  8
0
 62
     0
 10
2.73678
 20
101.381
 30
0.0
 11
3.02204
 21
101.526
 31
0.0
  0
LINE
  8
0
 62
     0
 10
3.02204
 20
101.526
 30
0.0
 11
3.24942
 21
101.753
 31
0.0
  0
LINE
  8
0
 62
     0
 10
3.24942
 20
101.753
 30
0.0
 11
3.39411
 21
102.038
 31
0.0
  0
LINE
  8
0
 62
     0
 10
3.39411
 20
102.038
 30
0.0
 11
3.4451
 21
102.355
 31
0.0
  0
LINE
  8
0
 62
     0
 10
3.4451
 20
102.355
 30
0.0
 11
3.39411
 21
102.672
 31
0.0
  0
LINE
  8
0
 62
     0
 10
3.39411
 20
102.672
 30
0.0
 11
3.24942
 21
102.957
 31
0.0
  0
LINE
  8
0
 62
     0
 10
3.24942
 20
102.957
 30
0.0
 11
3.02204
 21
103.185
 31
0.0
  0
LINE
  8
0
 62
     0
 10
3.02204
 20
103.185
 30
0.0
 11
2.73678
 21
103.329
 31
0.0
  0
LINE
  8
0
 62
     0
 10
2.73678
 20
103.329
 30
0.0
 11
2.41984
 21
103.379
 31
0.0
  0
LINE
  8
0
 62
     0
 10
2.41984
 20
103.379
 30
0.0
 11
2.10289
 21
103.329
 31
0.0
  0
LINE
  8
0
 62
     0
 10
373.316
 20
103.329
 30
0.0
 11
373.031
 21
103.185
 31
0.0
  0
LINE
  8
0
 62
     0
 10
373.031
 20
103.185
 30
0.0
 11
372.805
 21
102.957
 31
0.0
  0
LINE
  8
0
 62
     0
 10
372.805
 20
102.957
 30
0.0
 11
372.66
 21
102.672
 31
0.0
  0
LINE
  8
0
 62
     0
 10
372.66
 20
102.672
 30
0.0
 11
372.607
 21
102.355
 31
0.0
  0
LINE
  8
0
 62
     0
 10
372.607
 20
102.355
 30
0.0
 11
372.66
 21
102.038
 31
0.0
  0
LINE
  8
0
 62
     0
 10
372.66
 20
102.038
 30
0.0
 11
372.805
 21
101.753
 31
0.0
  0
LINE
  8
0
 62
     0
 10
372.805
 20
101.753
 30
0.0
 11
373.031
 21
101.526
 31
0.0
  0
LINE
  8
0
 62
     0
 10
373.031
 20
101.526
 30
0.0
 11
373.316
 21
101.381
 31
0.0
  0
LINE
  8
0
 62
     0
 10
373.316
 20
101.381
 30
0.0
 11
373.634
 21
101.33
 31
0.0
  0
LINE
  8
0
 62
     0
 10
373.634
 20
101.33
 30
0.0
 11
373.952
 21
101.381
 31
0.0
  0
LINE
  8
0
 62
     0
 10
373.952
 20
101.381
 30
0.0
 11
374.234
 21
101.526
 31
0.0
  0
LINE
  8
0
 62
     0
 10
374.234
 20
101.526
 30
0.0
 11
374.463
 21
101.753
 31
0.0
  0
LINE
  8
0
 62
     0
 10
374.463
 20
101.753
 30
0.0
 11
374.608
 21
102.038
 31
0.0
  0
LINE
  8
0
 62
     0
 10
374.608
 20
102.038
 30
0.0
 11
374.657
 21
102.355
 31
0.0
  0
LINE
  8
0
 62
     0
 10
374.657
 20
102.355
 30
0.0
 11
374.608
 21
102.672
 31
0.0
  0
LINE
  8
0
 62
     0
 10
374.608
 20
102.672
 30
0.0
 11
374.463
 21
102.957
 31
0.0
  0
LINE
  8
0
 62
     0
 10
374.463
 20
102.957
 30
0.0
 11
374.234
 21
103.185
 31
0.0
  0
LINE
  8
0
 62
     0
 10
374.234
 20
103.185
 30
0.0
 11
373.952
 21
103.329
 31
0.0
  0
LINE
  8
0
 62
     0
 10
373.952
 20
103.329
 30
0.0
 11
373.634
 21
103.379
 31
0.0
  0
LINE
  8
0
 62
     0
 10
373.634
 20
103.379
 30
0.0
 11
373.316
 21
103.329
 31
0.0
  0
LINE
  8
0
 62
     0
 10
249.578
 20
103.329
 30
0.0
 11
249.294
 21
103.185
 31
0.0
  0
LINE
  8
0
 62
     0
 10
249.294
 20
103.185
 30
0.0
 11
249.067
 21
102.957
 31
0.0
  0
LINE
  8
0
 62
     0
 10
249.067
 20
102.957
 30
0.0
 11
248.921
 21
102.672
 31
0.0
  0
LINE
  8
0
 62
     0
 10
248.921
 20
102.672
 30
0.0
 11
248.871
 21
102.355
 31
0.0
  0
LINE
  8
0
 62
     0
 10
248.871
 20
102.355
 30
0.0
 11
248.921
 21
102.038
 31
0.0
  0
LINE
  8
0
 62
     0
 10
248.921
 20
102.038
 30
0.0
 11
249.067
 21
101.753
 31
0.0
  0
LINE
  8
0
 62
     0
 10
249.067
 20
101.753
 30
0.0
 11
249.294
 21
101.526
 31
0.0
  0
LINE
  8
0
 62
     0
 10
249.294
 20
101.526
 30
0.0
 11
249.578
 21
101.381
 31
0.0
  0
LINE
  8
0
 62
     0
 10
249.578
 20
101.381
 30
0.0
 11
249.895
 21
101.33
 31
0.0
  0
LINE
  8
0
 62
     0
 10
249.895
 20
101.33
 30
0.0
 11
250.213
 21
101.381
 31
0.0
  0
LINE
  8
0
 62
     0
 10
250.213
 20
101.381
 30
0.0
 11
250.498
 21
101.526
 31
0.0
  0
LINE
  8
0
 62
     0
 10
250.498
 20
101.526
 30
0.0
 11
250.724
 21
101.753
 31
0.0
  0
LINE
  8
0
 62
     0
 10
250.724
 20
101.753
 30
0.0
 11
250.871
 21
102.038
 31
0.0
  0
LINE
  8
0
 62
     0
 10
250.871
 20
102.038
 30
0.0
 11
250.92
 21
102.355
 31
0.0
  0
LINE
  8
0
 62
     0
 10
250.92
 20
102.355
 30
0.0
 11
250.871
 21
102.672
 31
0.0
  0
LINE
  8
0
 62
     0
 10
250.871
 20
102.672
 30
0.0
 11
250.724
 21
102.957
 31
0.0
  0
LINE
  8
0
 62
     0
 10
250.724
 20
102.957
 30
0.0
 11
250.498
 21
103.185
 31
0.0
  0
LINE
  8
0
 62
     0
 10
250.498
 20
103.185
 30
0.0
 11
250.213
 21
103.329
 31
0.0
  0
LINE
  8
0
 62
     0
 10
250.213
 20
103.329
 30
0.0
 11
249.895
 21
103.379
 31
0.0
  0
LINE
  8
0
 62
     0
 10
249.895
 20
103.379
 30
0.0
 11
249.578
 21
103.329
 31
0.0
  0
LINE
  8
0
 62
     0
 10
125.841
 20
103.329
 30
0.0
 11
125.556
 21
103.185
 31
0.0
  0
LINE
  8
0
 62
     0
 10
125.556
 20
103.185
 30
0.0
 11
125.329
 21
102.957
 31
0.0
  0
LINE
  8
0
 62
     0
 10
125.329
 20
102.957
 30
0.0
 11
125.184
 21
102.672
 31
0.0
  0
LINE
  8
0
 62
     0
 10
125.184
 20
102.672
 30
0.0
 11
125.133
 21
102.355
 31
0.0
  0
LINE
  8
0
 62
     0
 10
125.133
 20
102.355
 30
0.0
 11
125.184
 21
102.038
 31
0.0
  0
LINE
  8
0
 62
     0
 10
125.184
 20
102.038
 30
0.0
 11
125.329
 21
101.753
 31
0.0
  0
LINE
  8
0
 62
     0
 10
125.329
 20
101.753
 30
0.0
 11
125.556
 21
101.526
 31
0.0
  0
LINE
  8
0
 62
     0
 10
125.556
 20
101.526
 30
0.0
 11
125.841
 21
101.381
 31
0.0
  0
LINE
  8
0
 62
     0
 10
125.841
 20
101.381
 30
0.0
 11
126.158
 21
101.33
 31
0.0
  0
LINE
  8
0
 62
     0
 10
126.158
 20
101.33
 30
0.0
 11
126.475
 21
101.381
 31
0.0
  0
LINE
  8
0
 62
     0
 10
126.475
 20
101.381
 30
0.0
 11
126.76
 21
101.526
 31
0.0
  0
LINE
  8
0
 62
     0
 10
126.76
 20
101.526
 30
0.0
 11
126.988
 21
101.753
 31
0.0
  0
LINE
  8
0
 62
     0
 10
126.988
 20
101.753
 30
0.0
 11
127.132
 21
102.038
 31
0.0
  0
LINE
  8
0
 62
     0
 10
127.132
 20
102.038
 30
0.0
 11
127.182
 21
102.355
 31
0.0
  0
LINE
  8
0
 62
     0
 10
127.182
 20
102.355
 30
0.0
 11
127.132
 21
102.672
 31
0.0
  0
LINE
  8
0
 62
     0
 10
127.132
 20
102.672
 30
0.0
 11
126.988
 21
102.957
 31
0.0
  0
LINE
  8
0
 62
     0
 10
126.988
 20
102.957
 30
0.0
 11
126.76
 21
103.185
 31
0.0
  0
LINE
  8
0
 62
     0
 10
126.76
 20
103.185
 30
0.0
 11
126.475
 21
103.329
 31
0.0
  0
LINE
  8
0
 62
     0
 10
126.475
 20
103.329
 30
0.0
 11
126.158
 21
103.379
 31
0.0
  0
LINE
  8
0
 62
     0
 10
126.158
 20
103.379
 30
0.0
 11
125.841
 21
103.329
 31
0.0
  0
ENDSEC
  0
EOF
